<svg width="316" height="62" viewBox="0 0 316 62" fill="none" xmlns="http://www.w3.org/2000/svg">
<path d="M22.8971 39.186V38.8587L27.2646 37.606C27.7015 37.4786 28.1089 37.3414 28.4975 37.1997C28.9123 37.0533 29.2847 36.7483 29.2847 36.7483L29.1866 36.7391C29.133 36.7339 29.0795 36.7283 29.0264 36.7223C27.9345 36.5995 26.9318 36.3225 26.0346 35.9125C23.7956 34.8894 22.2122 33.0383 21.5316 30.6889V25.2709V16.9195C21.5316 15.633 21.3284 14.1771 20.0757 13.5339V13.5H37.0041V18.7139H36.9702C35.7514 16.8857 33.5507 13.9401 27.9644 13.9401H26.0346V20.0365V24.5342V24.9097C26.0784 24.9097 26.1223 24.9092 26.1661 24.9082C28.29 24.8588 30.4267 23.62 31.6209 21.8288H31.6548V28.4308H31.6209C30.415 26.6219 28.248 25.3765 26.1034 25.3503C26.0912 25.3501 25.9739 25.3503 25.9129 25.3504C25.8132 26.1617 25.7636 27.0413 25.7636 27.9794C25.7636 29.3947 25.8442 30.6741 26.0346 31.7856C26.5092 34.5561 27.6664 36.2841 29.9619 36.4774C34.4649 34.4122 35.0065 31.5682 35.0065 28.2841C35.0065 22.8332 33.5168 19.4475 30.3682 19.4475V19.1428C35.9545 19.1428 39.611 22.867 39.611 28.1487C39.611 30.2274 39.0456 31.9933 37.0041 33.6329C35.6208 34.7439 33.5596 35.7969 30.5375 36.8499C29.7248 37.1207 28.7769 37.4254 27.7611 37.7301L24.1385 38.7797H24.5918H31.4516C33.6581 38.7797 35.4653 39.1191 36.7936 39.7212C38.576 40.4733 39.5547 41.6753 39.5547 43.1585C39.5547 46.3749 34.9839 48 30.4134 48C28.197 48 25.9806 47.6202 24.2932 46.8607C22.5266 46.0655 21.3397 44.854 21.3397 43.2262C21.3397 41.0932 22.7617 40.0437 24.353 40.0437C24.8565 40.0437 25.3732 40.1444 25.8654 40.346C26.9618 40.7949 27.938 41.7437 28.3819 43.1923V43.2262C28.3086 43.1191 28.2269 43.0176 28.1389 42.9228C27.8577 42.6201 27.5126 42.386 27.175 42.2563C26.9234 42.1329 26.6688 42.0638 26.4408 42.0638C25.9329 42.0638 25.5266 42.4024 25.5266 43.1472C25.5266 45.1908 26.7001 46.5336 28.2214 47.1644C28.8929 47.4428 29.6321 47.5824 30.3682 47.5824C32.7042 47.5824 35.0065 46.1943 35.0065 43.3165C35.0065 41.6484 34.2322 40.3894 32.789 39.7219C32.0353 39.3733 31.0992 39.186 29.9957 39.186H22.8971Z" fill="white"/>
<path d="M49.5294 36.4446V21.7706M36.6042 1H41.7287M41.7287 1L49.5291 8.80483M41.7287 1L38.4976 5.05476M49.5291 8.80483V17.5453M49.5291 8.80483L44.7288 12.0378M9.30646 16.4455V8.80483M9.30646 8.80483L17.107 1M9.30646 8.80483L14.1072 12.0378M17.107 1H32.3812M17.107 1L20.3384 5.05476M49.5288 40.1891V53.1952M49.5288 53.1952L41.7282 61M49.5288 53.1952L44.7288 49.9621M41.7282 61H17.1075M41.7282 61L38.4976 56.1951M17.1075 61L9.30677 53.1952M17.1075 61L20.3384 56.1951M9.30677 53.1952V20.189M9.30677 53.1952L14.1072 49.9621M14.1072 42.8671V49.9621M14.1072 49.9621L20.3384 56.1951M20.3384 56.1951H38.4976M38.4976 56.1951L44.7288 49.9621M44.7288 49.9621V12.0378M44.7288 12.0378L38.4976 5.05476M38.4976 5.05476H20.3384M20.3384 5.05476L14.1072 12.0378M14.1072 12.0378V38.6418M54.8582 39.4348L56.0233 38.7354C56.3388 38.5459 56.3388 38.0882 56.0233 37.8988L54.8582 37.1993C54.4014 36.9251 54.047 36.5087 53.8492 36.0138L52.2973 32.1323C52.1339 31.7235 51.5554 31.7235 51.392 32.1323L49.8403 36.0138C49.6424 36.5087 49.2879 36.9251 48.8311 37.1993L47.6661 37.8988C47.3504 38.0882 47.3504 38.5459 47.6661 38.7354L48.8311 39.4348C49.288 39.709 49.6424 40.1255 49.8403 40.6204L51.392 44.5018C51.5554 44.9107 52.1339 44.9107 52.2973 44.5018L53.8492 40.6204C54.0469 40.1255 54.4014 39.709 54.8582 39.4348ZM10.0046 19.4347L11.1697 18.7354C11.4852 18.5458 11.4852 18.0883 11.1697 17.8988L10.0046 17.1993C9.54777 16.9251 9.1933 16.5087 8.99541 16.0138L7.44374 12.1322C7.28025 11.7235 6.70181 11.7235 6.53832 12.1322L4.98665 16.0138C4.78877 16.5087 4.4343 16.9251 3.97747 17.1993L2.81239 17.8988C2.49686 18.0883 2.49686 18.5458 2.81239 18.7354L3.97747 19.4347C4.43428 19.709 4.78874 20.1255 4.98665 20.6204L6.53832 24.5019C6.70181 24.9107 7.28025 24.9107 7.44374 24.5019L8.99541 20.6204C9.19333 20.1255 9.54779 19.709 10.0046 19.4347Z" stroke="white" stroke-width="2" stroke-miterlimit="10" stroke-linejoin="round"/>
<path d="M67.4724 23.3886C67.4724 21.6514 67.1972 19.6857 65.5 18.8171V18.7714H88.435V25.8114H88.3891C86.7378 23.3429 83.7563 19.3657 76.1877 19.3657H73.5731V34.1771C76.5088 34.1771 79.4903 32.4857 81.1417 30.0171H81.1875V38.9314H81.1417C79.4903 36.4629 76.5088 34.7714 73.5731 34.7714V50.1771H76.1877C83.7563 50.1771 86.7378 46.2 88.3891 43.7314H88.435V50.7714H67.4724V23.3886Z" fill="white"/>
<path d="M91.8634 33.5371C91.4047 31.8914 90.1204 29.8343 88.1479 29.0114V28.9657C90.7167 28.3257 93.79 27.2286 95.6248 25.7657H95.7165L101.221 45.3771C101.634 46.84 102.505 47.5714 103.423 47.5714C104.294 47.5714 105.212 46.8857 105.762 45.3771L108.01 39.16C110.166 33.1714 106.083 29.8343 104.661 29.0114V28.9657C107.597 28.3257 110.67 27.2286 113.422 25.7657H113.514L105.991 46.6114C104.936 49.5371 102.78 50.9543 100.67 50.9543C98.5146 50.9543 96.4045 49.4914 95.5789 46.6114L91.8634 33.5371Z" fill="white"/>
<path d="M113.615 38.4286C113.615 31.5257 118.569 25.9029 126.092 25.9029C133.66 25.9029 138.614 31.5257 138.614 38.4286C138.614 45.3314 133.66 50.9543 126.092 50.9543C118.569 50.9543 113.615 45.3314 113.615 38.4286ZM132.376 38.4286C132.376 31.16 130.358 26.36 126.092 26.36C121.872 26.36 119.853 31.16 119.853 38.4286C119.853 45.6514 121.275 50.4971 126.092 50.4971C130.954 50.4971 132.376 45.6514 132.376 38.4286Z" fill="white"/>
<path d="M147.286 50.9086H147.24C146.277 50.7714 145.314 50.68 144.35 50.68C143.387 50.68 142.424 50.7714 141.415 50.9086H141.369V18.7714C141.369 17.0343 141.094 15.0686 139.397 14.2457V14.1543C142.149 13.56 144.901 12.4629 147.194 11H147.286V50.9086Z" fill="white"/>
<path d="M153.232 33.5371C152.774 31.8914 151.489 29.8343 149.517 29.0114V28.9657C152.086 28.3257 155.159 27.2286 156.994 25.7657H157.086L162.59 45.3771C163.003 46.84 163.874 47.5714 164.792 47.5714C165.663 47.5714 166.581 46.8857 167.131 45.3771L169.379 39.16C171.535 33.1714 167.452 29.8343 166.03 29.0114V28.9657C168.966 28.3257 172.039 27.2286 174.791 25.7657H174.883L167.36 46.6114C166.305 49.5371 164.149 50.9543 162.039 50.9543C159.884 50.9543 157.774 49.4914 156.948 46.6114L153.232 33.5371Z" fill="white"/>
<path d="M187.965 51C170.764 51 170.764 25.8571 187.461 25.8571C192.965 25.8571 196.772 28.5543 196.405 31.6171L181.589 41.2171C182.553 45.6057 185.259 49.2629 190.075 49.4C192.644 49.4914 195.213 48.5771 197.644 46.4286L197.965 46.7029C195.488 49.5371 191.727 51 187.965 51ZM191.497 34.1771C190.947 29.3314 189.387 26.3143 186.773 26.3143C182.599 26.3143 180.213 34.1314 181.452 40.6686L191.497 34.1771Z" fill="white"/>
<path d="M214.532 50.8629C204.487 50.8629 199.441 42.8171 199.441 34.7714C199.441 26.7257 204.441 18.68 214.532 18.68C223.385 18.68 227.238 23.2514 227.238 27.6857C224.853 27.6857 222.605 28.8743 221.367 30.2457H221.275C221.275 25.72 219.349 19.2286 214.578 19.2286C209.349 19.2286 206.138 27.1371 206.459 34.8629C206.78 41.8571 210.037 49.5829 217.101 49.7657C218.706 49.8114 219.991 49.4457 221.321 49.2171V41.08C221.321 39.3886 221 37.4229 219.349 36.5543V36.5086H227.376V50.7714H226.734C225.403 49.8571 224.257 49.5829 223.11 49.5829C220.725 49.5829 218.385 50.8629 214.532 50.8629Z" fill="white"/>
<path d="M243.063 51C225.862 51 225.862 25.8571 242.558 25.8571C248.063 25.8571 251.87 28.5543 251.503 31.6171L236.687 41.2171C237.65 45.6057 240.357 49.2629 245.173 49.4C247.742 49.4914 250.311 48.5771 252.742 46.4286L253.063 46.7029C250.586 49.5371 246.824 51 243.063 51ZM246.595 34.1771C246.045 29.3314 244.485 26.3143 241.87 26.3143C237.696 26.3143 235.311 34.1314 236.55 40.6686L246.595 34.1771Z" fill="white"/>
<path d="M275.874 32.6686L282.341 27.7314C283.947 26.4971 285.461 25.8571 286.699 25.8571C288.488 25.8571 289.681 27.2286 289.681 30.1086V46.6114C289.681 47.6171 290.231 48.0743 290.919 48.0743C291.699 48.0743 292.708 47.48 293.304 46.6114V46.6571C292.433 49.4914 290.048 50.9086 287.846 50.9086C285.69 50.9086 283.763 49.4914 283.763 46.6114V32.9886C283.763 30.84 282.938 29.8343 281.699 29.8343C280.965 29.8343 280.094 30.2 279.13 30.9314L275.874 33.3543V50.9086H275.828C274.865 50.7714 273.901 50.68 272.938 50.68C271.975 50.68 271.011 50.7714 270.002 50.9086H269.956V32.9886C269.956 30.84 269.131 29.8343 267.892 29.8343C267.158 29.8343 266.287 30.2 265.324 30.9314L262.067 33.3543V50.9086H262.021C261.058 50.7714 260.094 50.68 259.131 50.68C258.168 50.68 257.205 50.7714 256.195 50.9086H256.15V33.5371C256.15 31.8457 255.874 29.8343 254.177 29.0114V28.9657C256.929 28.3257 259.682 27.2286 261.975 25.7657H262.067V32.6686L268.535 27.7314C270.14 26.4971 271.654 25.8571 272.892 25.8571C274.681 25.8571 275.874 27.2286 275.874 30.1086V32.6686Z" fill="white"/>
<path d="M295.592 32.2114C295.592 28.6457 297.657 25.9029 304.308 25.9029C311.463 25.9029 314.17 29.0571 314.17 32.4857C312.151 32.76 309.95 33.6286 308.344 35.3657H308.253C308.253 31.8457 307.84 26.36 304.491 26.36C302.473 26.36 301.51 28.3257 301.51 30.2914C301.51 37.7886 315.5 37.6514 315.5 44.6457C315.5 48.12 312.06 50.9543 305.363 50.9543C298.299 50.9543 294.583 47.8 294.583 44.3257C296.602 44.0971 298.803 43.2286 300.455 41.4457H300.501C300.501 44.9657 301.28 50.4971 305.5 50.4971C307.61 50.4971 309.216 49.08 309.216 46.8857C309.216 40.5771 295.592 39.16 295.592 32.2114Z" fill="white"/>
</svg>
