<svg width="134" height="134" viewBox="0 0 134 134" fill="none" xmlns="http://www.w3.org/2000/svg">
<path d="M67 134C29.9969 134 0 104.003 0 67C0 29.9969 29.9969 0 67 0C104.003 0 134 29.9969 134 67C134 104.003 104.003 134 67 134ZM67 32.332C47.8534 32.332 32.332 47.8534 32.332 67C32.332 86.1466 47.8534 101.668 67 101.668C86.1466 101.668 101.668 86.1466 101.668 67C101.668 47.8534 86.1466 32.332 67 32.332Z" fill="#663141"/>
<path d="M15.0108 58.2855L25.1476 59.2417L25.0318 60.4692L16.1819 59.6344L16.1763 59.6937L17.5861 62.3236L16.3388 62.2059L14.895 59.513L15.0108 58.2855Z" fill="white"/>
<path d="M28.1277 48.2689C27.8667 48.9711 27.4533 49.4981 26.8876 49.85C26.3188 50.2008 25.6208 50.371 24.7937 50.3606C23.9636 50.3491 23.0296 50.1505 21.992 49.7648C20.9605 49.3815 20.1283 48.9236 19.4952 48.3913C18.8601 47.8547 18.4418 47.2678 18.2402 46.6307C18.0366 45.9893 18.0641 45.3206 18.3228 44.6247C18.5814 43.9288 18.9967 43.406 19.5687 43.0564C20.1386 42.7025 20.8387 42.5313 21.6689 42.5428C22.4972 42.5501 23.427 42.7454 24.4584 43.1288C25.4961 43.5145 26.333 43.9741 26.9692 44.5075C27.6023 45.0399 28.0197 45.6246 28.2213 46.2617C28.4198 46.8978 28.3886 47.5668 28.1277 48.2689ZM27.1024 47.8879C27.3611 47.192 27.2265 46.5267 26.6986 45.892C26.1707 45.2574 25.2854 44.7091 24.0427 44.2472C23.2163 43.9401 22.4798 43.7671 21.833 43.7282C21.1874 43.6863 20.6511 43.7734 20.2243 43.9895C19.7985 44.2026 19.5002 44.539 19.3294 44.9988C19.073 45.6885 19.2129 46.354 19.7489 46.9952C20.2818 47.6353 21.1681 48.1857 22.4077 48.6464C23.2341 48.9535 23.9685 49.1275 24.611 49.1683C25.2536 49.2091 25.7861 49.1224 26.2087 48.9082C26.6325 48.6909 26.9304 48.3508 27.1024 47.8879Z" fill="white"/>
<path d="M33.8448 38.0447C33.411 38.6554 32.8753 39.0575 32.2378 39.251C31.5976 39.4426 30.8793 39.4264 30.0831 39.2023C29.2842 38.9763 28.4335 38.5427 27.531 37.9016C26.634 37.2644 25.9486 36.6067 25.4748 35.9287C25.0003 35.246 24.7481 34.5709 24.7182 33.9032C24.6876 33.231 24.8873 32.5922 25.3172 31.987C25.7472 31.3817 26.2836 30.9842 26.9266 30.7946C27.5687 30.6002 28.2893 30.6161 29.0882 30.8421C29.8863 31.0635 30.7339 31.4928 31.631 32.1301C32.5335 32.7712 33.2229 33.4317 33.6994 34.1117C34.1731 34.7897 34.4249 35.4625 34.4548 36.1302C34.4819 36.7959 34.2786 37.4341 33.8448 38.0447ZM32.9531 37.4113C33.3831 36.8061 33.4253 36.1286 33.0796 35.379C32.734 34.6293 32.0208 33.8706 30.94 33.1028C30.2212 32.5922 29.5545 32.2345 28.9398 32.0296C28.3271 31.822 27.7866 31.7673 27.3183 31.8656C26.852 31.9612 26.4768 32.209 26.1927 32.6089C25.7666 33.2087 25.7294 33.8877 26.0812 34.6458C26.4303 35.402 27.1439 36.163 28.222 36.9289C28.9408 37.4395 29.6052 37.7976 30.2153 38.0033C30.8253 38.209 31.3622 38.2631 31.8258 38.1656C32.2914 38.0653 32.6671 37.8139 32.9531 37.4113Z" fill="white"/>
<path d="M40.3757 28.3453L40.0334 27.9317C39.7967 27.6457 39.6389 27.3354 39.5598 27.0007C39.4812 26.6614 39.4963 26.3262 39.6052 25.9951C39.7146 25.6594 39.9327 25.3563 40.2595 25.0858C40.5914 24.8111 40.93 24.6535 41.2751 24.6131C41.6182 24.5701 41.9465 24.6211 42.26 24.766C42.5714 24.9084 42.8455 25.1226 43.0821 25.4086L43.4245 25.8222C43.6612 26.1082 43.8201 26.4198 43.9013 26.757C43.9829 27.0896 43.9703 27.4227 43.8635 27.7563C43.7571 28.0852 43.5405 28.3849 43.2137 28.6554C42.8818 28.9301 42.543 29.09 42.1974 29.1351C41.8497 29.1776 41.5189 29.1288 41.2049 28.9885C40.8888 28.8457 40.6124 28.6313 40.3757 28.3453ZM40.8147 27.2851L41.1571 27.6987C41.3536 27.9362 41.5862 28.1029 41.8549 28.1989C42.1216 28.2923 42.3927 28.2249 42.6685 27.9966C42.9366 27.7748 43.0484 27.5252 43.004 27.2479C42.9599 26.966 42.8397 26.7063 42.6431 26.4688L42.3008 26.0552C42.1043 25.8177 41.8753 25.6502 41.6138 25.5525C41.3502 25.4523 41.0805 25.5163 40.8047 25.7446C40.5366 25.9664 40.422 26.2205 40.4609 26.5066C40.5003 26.7881 40.6182 27.0476 40.8147 27.2851ZM32.7541 27.0896L32.4118 26.676C32.1751 26.39 32.0172 26.0797 31.9382 25.745C31.8596 25.4057 31.8747 25.0705 31.9836 24.7394C32.093 24.4037 32.3111 24.1006 32.6379 23.8301C32.9698 23.5554 33.3084 23.3978 33.6535 23.3574C33.9965 23.3144 34.3248 23.3654 34.6384 23.5103C34.9498 23.6527 35.2239 23.8669 35.4605 24.1529L35.8029 24.5665C36.0395 24.8525 36.1985 25.1641 36.2796 25.5013C36.3613 25.8339 36.3487 26.167 36.2419 26.5006C36.1355 26.8295 35.9189 27.1292 35.5921 27.3997C35.2602 27.6744 34.9214 27.8343 34.5758 27.8794C34.2281 27.9219 33.8973 27.8731 33.5833 27.7328C33.2672 27.59 32.9908 27.3756 32.7541 27.0896ZM33.1931 26.0294L33.5355 26.443C33.732 26.6805 33.9646 26.8472 34.2333 26.9432C34.4999 27.0366 34.7711 26.9692 35.0469 26.741C35.315 26.5191 35.4268 26.2695 35.3824 25.9922C35.3383 25.7103 35.2181 25.4506 35.0215 25.2131L34.6792 24.7995C34.4827 24.562 34.2537 24.3945 33.9922 24.2968C33.7285 24.1966 33.4588 24.2607 33.1831 24.4889C32.915 24.7108 32.8004 24.9648 32.8393 25.2509C32.8787 25.5324 32.9966 25.7919 33.1931 26.0294ZM37.9773 32.8083L36.8784 20.5013L37.7517 19.7786L38.8506 32.0856L37.9773 32.8083Z" fill="white"/>
<path d="M57.771 15.6385L56.58 15.9577C56.4178 15.634 56.2139 15.3661 55.9684 15.1539C55.726 14.9409 55.4564 14.7798 55.1595 14.6707C54.8649 14.5574 54.5552 14.4963 54.2302 14.4873C53.9052 14.4783 53.5795 14.5176 53.2529 14.6051C52.6575 14.7646 52.1583 15.0596 51.7556 15.4901C51.356 15.9197 51.0922 16.4656 50.9643 17.1278C50.8395 17.7892 50.8912 18.5457 51.1194 19.3973C51.3476 20.2488 51.6811 20.9298 52.1198 21.4402C52.5617 21.9497 53.0631 22.2906 53.6239 22.4629C54.188 22.6343 54.7677 22.6402 55.3632 22.4806C55.6898 22.3932 55.9915 22.2643 56.2684 22.094C56.5453 21.9237 56.7834 21.7175 56.9828 21.4754C57.1845 21.2292 57.337 20.9533 57.4404 20.6476C57.5461 20.3379 57.5887 20.004 57.5682 19.6457L58.7592 19.3266C58.8042 19.8533 58.7615 20.3468 58.6309 20.8073C58.5004 21.2677 58.2964 21.6844 58.0188 22.0573C57.7405 22.427 57.4013 22.7426 57.0013 23.0042C56.6045 23.2649 56.158 23.4618 55.6617 23.5948C54.8229 23.8195 54.0221 23.8145 53.2592 23.5797C52.4963 23.3449 51.8263 22.8999 51.2493 22.2447C50.6723 21.5896 50.2448 20.7433 49.9669 19.7061C49.689 18.6688 49.6361 17.7222 49.8082 16.8663C49.9803 16.0104 50.338 15.29 50.8813 14.7053C51.4246 14.1205 52.1156 13.7157 52.9544 13.491C53.4506 13.358 53.9358 13.3052 54.4098 13.3326C54.887 13.3592 55.339 13.4645 55.7658 13.6487C56.1917 13.8296 56.5763 14.0869 56.9196 14.4204C57.262 14.7507 57.5458 15.1567 57.771 15.6385Z" fill="white"/>
<path d="M67.2385 22.1591C66.5027 22.1591 65.868 21.9967 65.3343 21.6719C64.804 21.3438 64.3947 20.8864 64.1064 20.2997C63.8213 19.7098 63.6788 19.0237 63.6788 18.2415C63.6788 17.4593 63.8213 16.7699 64.1064 16.1733C64.3947 15.5734 64.7958 15.1061 65.3095 14.7713C65.8265 14.4332 66.4297 14.2642 67.1191 14.2642C67.5169 14.2642 67.9096 14.3305 68.2974 14.4631C68.6852 14.5956 69.0382 14.8111 69.3564 15.1094C69.6745 15.4044 69.9281 15.7955 70.117 16.2827C70.3059 16.7699 70.4004 17.3698 70.4004 18.0824V18.5795H64.514V17.5653H69.2072C69.2072 17.1345 69.121 16.75 68.9487 16.4119C68.7797 16.0739 68.5377 15.8071 68.2228 15.6115C67.9113 15.416 67.5434 15.3182 67.1191 15.3182C66.6518 15.3182 66.2475 15.4342 65.9061 15.6662C65.568 15.8949 65.3078 16.1932 65.1255 16.5611C64.9432 16.929 64.8521 17.3234 64.8521 17.7443V18.4205C64.8521 18.9972 64.9515 19.486 65.1504 19.8871C65.3526 20.2848 65.6326 20.5881 65.9906 20.7969C66.3485 21.0024 66.7645 21.1051 67.2385 21.1051C67.5467 21.1051 67.8251 21.062 68.0737 20.9759C68.3256 20.8864 68.5427 20.7538 68.725 20.5781C68.9073 20.3991 69.0481 20.1771 69.1475 19.9119L70.2811 20.2301C70.1618 20.6146 69.9612 20.9527 69.6795 21.2443C69.3978 21.5327 69.0498 21.758 68.6355 21.9205C68.2212 22.0795 67.7555 22.1591 67.2385 22.1591Z" fill="white"/>
<path d="M77.1923 23.1436L79.1688 15.7675L80.2637 16.0608L79.9651 17.1749L80.042 17.1955C80.2742 16.8666 80.5969 16.6357 81.0099 16.5027C81.423 16.3698 81.8504 16.3625 82.2922 16.4809C82.3755 16.5032 82.4791 16.5327 82.6031 16.5693C82.7271 16.606 82.8203 16.6361 82.8826 16.6596L82.5738 17.8122C82.5379 17.7923 82.4537 17.7543 82.3212 17.6982C82.1928 17.6397 82.0533 17.5904 81.9028 17.55C81.5443 17.454 81.204 17.4434 80.8819 17.5184C80.5639 17.591 80.2881 17.7367 80.0545 17.9555C79.825 18.1719 79.6656 18.4466 79.5764 18.7796L78.3256 23.4473L77.1923 23.1436Z" fill="white"/>
<path d="M95.3728 22.6018L94.8757 23.4629L91.4485 21.4842L91.9457 20.6231L95.3728 22.6018ZM93.8593 19.6154L94.8754 20.2021L91.2362 26.5053C91.0705 26.7924 90.9878 27.0317 90.9882 27.2233C90.9931 27.4136 91.0475 27.5713 91.1514 27.6963C91.2597 27.8202 91.3886 27.9251 91.5378 28.0113C91.6498 28.076 91.7449 28.1232 91.8233 28.1532C91.9034 28.1803 91.9674 28.2019 92.0154 28.2182L91.6951 29.2503C91.6113 29.2363 91.5002 29.2066 91.3619 29.1612C91.2219 29.1187 91.0572 29.0427 90.8677 28.9333C90.5807 28.7676 90.335 28.5435 90.1307 28.261C89.9293 27.9801 89.8111 27.6612 89.7761 27.3042C89.744 26.9489 89.8389 26.5789 90.061 26.1942L93.8593 19.6154Z" fill="white"/>
<path d="M98.4162 34.7766L103.816 29.3769L104.646 30.2065L99.2459 35.6063L98.4162 34.7766ZM105.138 28.8988C104.976 28.7371 104.892 28.5426 104.885 28.3152C104.88 28.0902 104.955 27.9004 105.11 27.7457C105.264 27.591 105.454 27.5161 105.679 27.5207C105.906 27.5278 106.101 27.6121 106.263 27.7739C106.424 27.9356 106.508 28.1289 106.512 28.3539C106.519 28.5812 106.446 28.7722 106.291 28.9269C106.136 29.0816 105.945 29.1554 105.718 29.1484C105.493 29.1437 105.299 29.0605 105.138 28.8988Z" fill="white"/>
<path d="M113.821 42.8231L112.96 43.3203L110.901 39.7553L111.763 39.2582L113.821 42.8231ZM105.766 44.1441L113.292 39.7989C113.671 39.5802 114.038 39.4869 114.393 39.519C114.748 39.5511 115.071 39.6728 115.362 39.8841C115.652 40.0953 115.888 40.3588 116.071 40.6746C116.215 40.9243 116.312 41.1397 116.363 41.3207C116.414 41.5018 116.445 41.641 116.455 41.7384L115.408 41.9527C115.395 41.8911 115.375 41.807 115.348 41.7002C115.323 41.5963 115.268 41.4711 115.183 41.3248C114.989 40.9889 114.764 40.7953 114.509 40.7438C114.255 40.6952 113.965 40.7653 113.637 40.9542L106.352 45.1602L105.766 44.1441Z" fill="white"/>
<path d="M110.319 54.8019L117.695 52.8255L117.999 53.9588L110.623 55.9352L110.319 54.8019ZM119.079 53.0723C119.02 52.8514 119.044 52.6408 119.152 52.4404C119.26 52.2432 119.42 52.1163 119.631 52.0597C119.842 52.0031 120.044 52.033 120.237 52.1496C120.43 52.2693 120.556 52.4397 120.616 52.6606C120.675 52.8815 120.65 53.0905 120.542 53.2877C120.434 53.4881 120.275 53.6166 120.063 53.6732C119.852 53.7298 119.65 53.6983 119.456 53.5785C119.264 53.462 119.138 53.2932 119.079 53.0723Z" fill="white"/>
<path d="M111.841 67.2386C111.841 66.5028 112.003 65.8681 112.328 65.3345C112.656 64.8042 113.114 64.3948 113.7 64.1065C114.29 63.8214 114.976 63.6789 115.759 63.6789C116.541 63.6789 117.23 63.8214 117.827 64.1065C118.427 64.3948 118.894 64.7959 119.229 65.3096C119.567 65.8266 119.736 66.4299 119.736 67.1193C119.736 67.517 119.67 67.9097 119.537 68.2975C119.404 68.6853 119.189 69.0383 118.891 69.3565C118.596 69.6747 118.205 69.9282 117.717 70.1171C117.23 70.3061 116.63 70.4005 115.918 70.4005H115.42V64.5141H116.435V69.2073C116.866 69.2073 117.25 69.1212 117.588 68.9488C117.926 68.7798 118.193 68.5378 118.388 68.223C118.584 67.9114 118.682 67.5435 118.682 67.1193C118.682 66.6519 118.566 66.2476 118.334 65.9062C118.105 65.5681 117.807 65.3079 117.439 65.1257C117.071 64.9434 116.677 64.8522 116.256 64.8522H115.58C115.003 64.8522 114.514 64.9516 114.113 65.1505C113.715 65.3527 113.412 65.6328 113.203 65.9907C112.998 66.3487 112.895 66.7646 112.895 67.2386C112.895 67.5468 112.938 67.8252 113.024 68.0738C113.114 68.3257 113.246 68.5428 113.422 68.7251C113.601 68.9074 113.823 69.0482 114.088 69.1477L113.77 70.2812C113.385 70.1619 113.047 69.9614 112.756 69.6796C112.467 69.3979 112.242 69.0499 112.08 68.6356C111.92 68.2213 111.841 67.7556 111.841 67.2386Z" fill="white"/>
<path d="M110.146 79.2306C110.31 78.6159 110.611 78.1149 111.048 77.7275C111.487 77.3409 112.028 77.0911 112.669 76.9781C113.313 76.8659 114.026 76.9145 114.807 77.1238C115.582 77.3314 116.219 77.6444 116.717 78.0628C117.216 78.4812 117.557 78.969 117.741 79.526C117.924 80.083 117.933 80.6721 117.766 81.2931C117.638 81.7734 117.456 82.1313 117.221 82.3669C116.989 82.6066 116.752 82.7731 116.511 82.8663C116.272 82.9636 116.078 83.0367 115.927 83.0856L115.901 83.1817L119.532 84.1544L119.228 85.2878L109.393 82.6525L109.687 81.5576L110.82 81.8613L110.856 81.7268C110.744 81.6075 110.606 81.4436 110.442 81.2351C110.282 81.0273 110.16 80.7596 110.076 80.4318C109.995 80.1048 110.019 79.7044 110.146 79.2306ZM111.122 79.657C111.001 80.1117 111.016 80.5276 111.169 80.9048C111.325 81.2829 111.592 81.6102 111.971 81.8867C112.353 82.164 112.823 82.3774 113.38 82.5266C113.931 82.6742 114.434 82.7232 114.89 82.6738C115.349 82.6253 115.736 82.475 116.05 82.223C116.368 81.9719 116.589 81.6158 116.712 81.1548C116.841 80.6746 116.825 80.2414 116.664 79.8552C116.506 79.4731 116.238 79.1458 115.862 78.8733C115.488 78.6049 115.041 78.4012 114.523 78.2623C113.998 78.1216 113.499 78.0738 113.027 78.1189C112.558 78.1681 112.154 78.3173 111.816 78.5665C111.481 78.8197 111.249 79.1832 111.122 79.657Z" fill="white"/>
<path d="M105.056 106.983L104.184 107.855L99.0373 102.708C98.5779 102.249 98.2721 101.775 98.1198 101.285C97.9674 100.795 97.9616 100.313 98.1022 99.8399C98.2428 99.3665 98.5217 98.9212 98.9389 98.504C99.3326 98.1103 99.7545 97.8314 100.204 97.6673C100.657 97.5056 101.104 97.4705 101.547 97.5619C101.99 97.6533 102.396 97.8829 102.764 98.2509L101.906 99.1087C101.702 98.9048 101.474 98.777 101.22 98.7255C100.967 98.6786 100.709 98.702 100.447 98.7958C100.185 98.8895 99.9396 99.0501 99.7123 99.2774C99.4615 99.5282 99.301 99.7942 99.2306 100.075C99.1603 100.357 99.1814 100.645 99.2939 100.94C99.4064 101.24 99.6115 101.539 99.9091 101.837L105.056 106.983Z" fill="white"/>
<path d="M89.2138 105.953C89.8511 105.585 90.4819 105.408 91.1065 105.423C91.7298 105.442 92.313 105.633 92.856 105.997C93.3978 106.365 93.8643 106.888 94.2554 107.566C94.6465 108.243 94.8678 108.911 94.9192 109.57C94.9694 110.234 94.8558 110.839 94.5783 111.386C94.2995 111.937 93.8616 112.385 93.2646 112.73C92.9202 112.929 92.5469 113.068 92.1448 113.147C91.7427 113.226 91.3292 113.216 90.9045 113.117C90.4815 113.02 90.0664 112.809 89.6591 112.481C89.2519 112.154 88.8702 111.681 88.5139 111.064L88.2653 110.634L93.363 107.69L93.8701 108.569L89.8057 110.915C90.0212 111.289 90.288 111.578 90.6063 111.785C90.9217 111.993 91.2647 112.103 91.6351 112.115C92.0027 112.129 92.3702 112.03 92.7376 111.817C93.1423 111.584 93.4345 111.281 93.6142 110.909C93.7926 110.542 93.8688 110.154 93.8427 109.744C93.8166 109.334 93.6983 108.947 93.4879 108.583L93.1498 107.997C92.8615 107.498 92.5309 107.124 92.1582 106.876C91.7842 106.633 91.39 106.51 90.9756 106.508C90.5629 106.509 90.1513 106.628 89.7408 106.865C89.4739 107.02 89.2543 107.196 89.0821 107.395C88.9087 107.598 88.787 107.822 88.717 108.065C88.6486 108.311 88.6376 108.574 88.6841 108.853L87.5433 109.145C87.4544 108.752 87.4591 108.359 87.5572 107.965C87.657 107.575 87.8457 107.206 88.1233 106.858C88.4025 106.513 88.7661 106.211 89.2138 105.953Z" fill="white"/>
<path d="M81.3842 109.733L85.6081 116.507L84.4171 116.826L81.3096 111.606L81.2327 111.627L81.1708 117.696L79.9607 118.02L76.8967 112.809L76.8199 112.83L76.7336 118.885L75.5427 119.204L75.8137 111.226L76.9278 110.927L80.0597 116.162L80.1749 116.131L80.2701 110.032L81.3842 109.733Z" fill="white"/>
<path d="M66.7615 111.841C67.4973 111.841 68.132 112.003 68.6657 112.328C69.196 112.656 69.6053 113.114 69.8936 113.7C70.1787 114.29 70.3212 114.976 70.3212 115.759C70.3212 116.541 70.1787 117.23 69.8936 117.827C69.6053 118.427 69.2042 118.894 68.6905 119.229C68.1735 119.567 67.5703 119.736 66.8809 119.736C66.4831 119.736 66.0904 119.67 65.7026 119.537C65.3148 119.404 64.9618 119.189 64.6436 118.891C64.3255 118.596 64.0719 118.205 63.883 117.717C63.6941 117.23 63.5996 116.63 63.5996 115.918V115.42H69.486V116.435H64.7928C64.7928 116.866 64.879 117.25 65.0513 117.588C65.2203 117.926 65.4623 118.193 65.7772 118.388C66.0887 118.584 66.4566 118.682 66.8809 118.682C67.3482 118.682 67.7525 118.566 68.0939 118.334C68.432 118.105 68.6922 117.807 68.8745 117.439C69.0568 117.071 69.1479 116.677 69.1479 116.256V115.58C69.1479 115.003 69.0485 114.514 68.8496 114.113C68.6474 113.715 68.3674 113.412 68.0094 113.203C67.6515 112.998 67.2355 112.895 66.7615 112.895C66.4533 112.895 66.1749 112.938 65.9263 113.024C65.6744 113.114 65.4573 113.246 65.275 113.422C65.0927 113.601 64.9519 113.823 64.8525 114.088L63.7189 113.77C63.8382 113.385 64.0388 113.047 64.3205 112.756C64.6022 112.467 64.9502 112.242 65.3645 112.08C65.7788 111.92 66.2445 111.841 66.7615 111.841Z" fill="white"/>
<path d="M52.1358 120.146L54.7711 110.311L55.9044 110.614L53.2691 120.449L52.1358 120.146Z" fill="white"/>
<path d="M38.8873 114.488L43.9782 105.67L44.9943 106.257L39.9034 115.074L38.8873 114.488Z" fill="white"/>
<path d="M35.124 98.5387C35.6443 99.0589 35.9783 99.6226 36.1259 100.23C36.2689 100.837 36.2349 101.449 36.024 102.068C35.8084 102.687 35.424 103.273 34.8709 103.826C34.3178 104.379 33.7296 104.766 33.1062 104.986C32.4781 105.206 31.864 105.253 31.2641 105.127C30.6594 105 30.1134 104.693 29.6259 104.206C29.3446 103.924 29.1138 103.6 28.9333 103.232C28.7529 102.864 28.6556 102.462 28.6416 102.026C28.6251 101.592 28.7224 101.137 28.9333 100.658C29.1443 100.18 29.5017 99.6894 30.0055 99.1855L30.3571 98.834L34.5194 102.996L33.8022 103.713L30.4836 100.395C30.179 100.699 29.968 101.032 29.8509 101.393C29.7313 101.752 29.7138 102.112 29.7981 102.472C29.8802 102.831 30.0712 103.16 30.3712 103.46C30.7016 103.791 31.0696 103.995 31.475 104.072C31.8758 104.149 32.2707 104.122 32.6597 103.991C33.0487 103.86 33.3921 103.645 33.6897 103.348L34.1678 102.87C34.5756 102.462 34.851 102.046 34.994 101.622C35.1322 101.198 35.1486 100.785 35.0432 100.384C34.9354 99.9858 34.7139 99.6191 34.3788 99.2839C34.1608 99.066 33.9335 98.8996 33.6968 98.7847C33.4554 98.6699 33.2081 98.6101 32.955 98.6054C32.6995 98.6031 32.4429 98.6605 32.1851 98.7777L31.6086 97.7512C31.9648 97.5637 32.3457 97.4664 32.7511 97.4594C33.1542 97.4547 33.5597 97.5414 33.9675 97.7196C34.3729 97.9 34.7584 98.173 35.124 98.5387Z" fill="white"/>
<path d="M28.7818 90.8041L22.1685 94.6223L21.6017 93.6407L22.6006 93.064L22.5608 92.9951C22.164 93.0634 21.7725 92.9986 21.3865 92.8005C21.0004 92.6024 20.693 92.3053 20.4643 91.9092C20.4212 91.8346 20.3688 91.7405 20.307 91.6269C20.2453 91.5133 20.2007 91.4261 20.1733 91.3654L21.2066 90.7688C21.2179 90.8082 21.2505 90.8946 21.3046 91.028C21.3541 91.1601 21.4178 91.2937 21.4957 91.4286C21.6813 91.7501 21.9144 91.9981 22.1952 92.1729C22.4714 92.3463 22.7694 92.4383 23.0893 92.4488C23.4047 92.4581 23.7116 92.3766 24.0101 92.2042L28.1951 89.788L28.7818 90.8041Z" fill="white"/>
<path d="M26.8258 79.8702C26.8773 80.0623 26.9072 80.2379 26.9155 80.3969C26.927 80.5551 26.926 80.6669 26.9127 80.7322L25.8366 80.7117C25.8333 80.4175 25.7937 80.1674 25.7179 79.9612C25.642 79.7551 25.4974 79.5931 25.284 79.4753C25.0729 79.3534 24.7616 79.2738 24.3502 79.2365L23.7173 79.1796L17.0336 83.894L16.7042 82.6647L22.0365 79.0536L22.0159 78.9767L15.5924 78.5156L15.263 77.2862L24.5538 78.1526C24.9726 78.1914 25.3347 78.2813 25.6401 78.4225C25.9488 78.5628 26.2009 78.7544 26.3963 78.9971C26.5909 79.2366 26.734 79.5277 26.8258 79.8702Z" fill="white"/>
</svg>
