<svg width="252" height="50" viewBox="0 0 252 50" fill="none" xmlns="http://www.w3.org/2000/svg">
<path d="M17.9177 31.5488V31.2869L21.4117 30.2848C21.7612 30.1829 22.0871 30.0731 22.398 29.9598C22.7298 29.8426 23.0277 29.5986 23.0277 29.5986L22.9493 29.5913C22.9064 29.5871 22.8636 29.5826 22.8211 29.5778C21.9476 29.4796 21.1454 29.258 20.4276 28.93C18.6365 28.1116 17.3697 26.6307 16.8253 24.7512V20.4167V13.7356C16.8253 12.7064 16.6627 11.5417 15.6606 11.0271V11H29.2033V15.1712H29.1762C28.2011 13.7085 26.4405 11.3521 21.9715 11.3521H20.4276V16.2292V19.8273V20.1278C20.4627 20.1278 20.4978 20.1274 20.5329 20.1265C22.232 20.087 23.9414 19.096 24.8967 17.663H24.9238V22.9447H24.8967C23.932 21.4976 22.1984 20.5012 20.4827 20.4802C20.4729 20.4801 20.3791 20.4802 20.3303 20.4803C20.2505 21.1293 20.2109 21.833 20.2109 22.5835C20.2109 23.7158 20.2753 24.7393 20.4276 25.6285C20.8073 27.8449 21.7331 29.2273 23.5695 29.3819C27.1719 27.7297 27.6052 25.4546 27.6052 22.8273C27.6052 18.4665 26.4134 15.758 23.8945 15.758V15.5142C28.3636 15.5142 31.2888 18.4936 31.2888 22.7189C31.2888 24.3819 30.8365 25.7946 29.2033 27.1063C28.0966 27.9951 26.4477 28.8375 24.03 29.6799C23.3799 29.8966 22.6215 30.1403 21.8089 30.3841L18.9108 31.2237H19.2734H24.7612C26.5265 31.2237 27.9722 31.4953 29.0349 31.9769C30.4608 32.5786 31.2437 33.5402 31.2437 34.7268C31.2437 37.2999 27.5871 38.6 23.9307 38.6C22.1576 38.6 20.3844 38.2962 19.0346 37.6885C17.6212 37.0524 16.6718 36.0832 16.6718 34.781C16.6718 33.0746 17.8094 32.2349 19.0824 32.2349C19.4852 32.2349 19.8985 32.3155 20.2923 32.4768C21.1695 32.8359 21.9504 33.5949 22.3055 34.7539V34.781C22.2469 34.6953 22.1815 34.6141 22.1111 34.5383C21.8862 34.2961 21.6101 34.1088 21.34 34.005C21.1387 33.9063 20.935 33.851 20.7526 33.851C20.3463 33.851 20.0213 34.1219 20.0213 34.7178C20.0213 36.3526 20.9601 37.4269 22.1771 37.9315C22.7143 38.1542 23.3057 38.2659 23.8945 38.2659C25.7634 38.2659 27.6052 37.1554 27.6052 34.8532C27.6052 33.5187 26.9857 32.5115 25.8312 31.9775C25.2282 31.6986 24.4793 31.5488 23.5965 31.5488H17.9177Z" fill="#663141"/>
<path d="M39.2235 29.3557V17.6165M28.8833 1H32.9829M32.9829 1L39.2233 7.24387M32.9829 1L30.398 4.24381M39.2233 7.24387V14.2362M39.2233 7.24387L35.383 9.83021M7.04516 13.3564V7.24386M7.04516 7.24386L13.2856 1M7.04516 7.24386L10.8858 9.83021M13.2856 1H25.505M13.2856 1L15.8707 4.24381M39.223 32.3512V42.7561M39.223 42.7561L32.9826 49M39.223 42.7561L35.383 40.1697M32.9826 49H13.286M32.9826 49L30.398 45.1561M13.286 49L7.0454 42.7561M13.286 49L15.8707 45.1561M7.0454 42.7561V16.3512M7.0454 42.7561L10.8858 40.1697M10.8858 34.4937V40.1697M10.8858 40.1697L15.8707 45.1561M15.8707 45.1561H30.398M30.398 45.1561L35.383 40.1697M35.383 40.1697V9.83021M35.383 9.83021L30.398 4.24381M30.398 4.24381H15.8707M15.8707 4.24381L10.8858 9.83021M10.8858 9.83021V31.1134M43.4866 31.7478L44.4186 31.1883C44.6711 31.0367 44.6711 30.6706 44.4186 30.519L43.4866 29.9595C43.1211 29.7401 42.8376 29.407 42.6793 29.0111L41.4378 25.9058C41.3071 25.5788 40.8443 25.5788 40.7135 25.9058L39.4722 29.0111C39.3139 29.407 39.0303 29.7401 38.6649 29.9595L37.7329 30.519C37.4803 30.6706 37.4803 31.0367 37.7329 31.1883L38.6649 31.7478C39.0304 31.9672 39.3139 32.3004 39.4722 32.6963L40.7135 35.8015C40.8443 36.1286 41.3071 36.1286 41.4378 35.8015L42.6793 32.6963C42.8375 32.3004 43.1211 31.9672 43.4866 31.7478ZM7.60367 15.7478L8.53573 15.1883C8.78815 15.0367 8.78815 14.6706 8.53573 14.519L7.60367 13.9594C7.2382 13.7401 6.95463 13.4069 6.79632 13.011L5.55498 9.9058C5.42419 9.57878 4.96144 9.57878 4.83065 9.9058L3.58931 13.011C3.431 13.4069 3.14743 13.7401 2.78196 13.9594L1.8499 14.519C1.59748 14.6706 1.59748 15.0367 1.8499 15.1883L2.78196 15.7478C3.14741 15.9672 3.43098 16.3004 3.58931 16.6963L4.83065 19.8015C4.96144 20.1285 5.42419 20.1285 5.55498 19.8015L6.79632 16.6963C6.95465 16.3004 7.23822 15.9672 7.60367 15.7478Z" stroke="#663141" stroke-width="1.6" stroke-miterlimit="10" stroke-linejoin="round"/>
<path d="M53.5779 18.9109C53.5779 17.5211 53.3578 15.9486 52 15.2537V15.2171H70.348V20.8491H70.3113C68.9902 18.8743 66.605 15.6926 60.5502 15.6926H58.4585V27.5417C60.807 27.5417 63.1923 26.1886 64.5133 24.2137H64.55V31.3451H64.5133C63.1923 29.3703 60.807 28.0171 58.4585 28.0171V40.3417H60.5502C66.605 40.3417 68.9902 37.16 70.3113 35.1851H70.348V40.8171H53.5779V18.9109Z" fill="#663141"/>
<path d="M73.0907 27.0297C72.7238 25.7131 71.6963 24.0674 70.1184 23.4091V23.3726C72.1733 22.8606 74.632 21.9829 76.0998 20.8126H76.1732L80.5767 36.5017C80.907 37.672 81.6042 38.2571 82.3381 38.2571C83.0353 38.2571 83.7693 37.7086 84.2096 36.5017L86.0077 31.528C87.7324 26.7371 84.4665 24.0674 83.3289 23.4091V23.3726C85.6775 22.8606 88.1361 21.9829 90.3378 20.8126H90.4112L84.3931 37.4891C83.5491 39.8297 81.8244 40.9634 80.1364 40.9634C78.4116 40.9634 76.7236 39.7931 76.0631 37.4891L73.0907 27.0297Z" fill="#663141"/>
<path d="M90.4921 30.9429C90.4921 25.4206 94.4552 20.9223 100.473 20.9223C106.528 20.9223 110.491 25.4206 110.491 30.9429C110.491 36.4651 106.528 40.9634 100.473 40.9634C94.4552 40.9634 90.4921 36.4651 90.4921 30.9429ZM105.501 30.9429C105.501 25.128 103.886 21.288 100.473 21.288C97.0974 21.288 95.4827 25.128 95.4827 30.9429C95.4827 36.7211 96.6203 40.5977 100.473 40.5977C104.363 40.5977 105.501 36.7211 105.501 30.9429Z" fill="#663141"/>
<path d="M117.429 40.9269H117.392C116.622 40.8171 115.851 40.744 115.08 40.744C114.31 40.744 113.539 40.8171 112.732 40.9269H112.695V15.2171C112.695 13.8274 112.475 12.2549 111.117 11.5966V11.5234C113.319 11.048 115.521 10.1703 117.356 9H117.429V40.9269Z" fill="#663141"/>
<path d="M122.186 27.0297C121.819 25.7131 120.791 24.0674 119.214 23.4091V23.3726C121.269 22.8606 123.727 21.9829 125.195 20.8126H125.268L129.672 36.5017C130.002 37.672 130.699 38.2571 131.433 38.2571C132.131 38.2571 132.864 37.7086 133.305 36.5017L135.103 31.528C136.828 26.7371 133.562 24.0674 132.424 23.4091V23.3726C134.773 22.8606 137.231 21.9829 139.433 20.8126H139.506L133.488 37.4891C132.644 39.8297 130.92 40.9634 129.232 40.9634C127.507 40.9634 125.819 39.7931 125.158 37.4891L122.186 27.0297Z" fill="#663141"/>
<path d="M149.972 41C136.211 41 136.211 20.8857 149.569 20.8857C153.972 20.8857 157.018 23.0434 156.724 25.4937L144.872 33.1737C145.642 36.6846 147.807 39.6103 151.66 39.72C153.715 39.7931 155.77 39.0617 157.715 37.3429L157.972 37.5623C155.99 39.8297 152.981 41 149.972 41ZM152.798 27.5417C152.357 23.6651 151.11 21.2514 149.018 21.2514C145.679 21.2514 143.771 27.5051 144.761 32.7349L152.798 27.5417Z" fill="#663141"/>
<path d="M171.226 40.8903C163.189 40.8903 159.153 34.4537 159.153 28.0171C159.153 21.5806 163.153 15.144 171.226 15.144C178.308 15.144 181.391 18.8011 181.391 22.3486C179.482 22.3486 177.684 23.2994 176.694 24.3966H176.62C176.62 20.776 175.079 15.5829 171.263 15.5829C167.079 15.5829 164.51 21.9097 164.767 28.0903C165.024 33.6857 167.63 39.8663 173.281 40.0126C174.565 40.0491 175.593 39.7566 176.657 39.5737V33.064C176.657 31.7109 176.4 30.1383 175.079 29.4434V29.4069H181.501V40.8171H180.987C179.923 40.0857 179.005 39.8663 178.088 39.8663C176.18 39.8663 174.308 40.8903 171.226 40.8903Z" fill="#663141"/>
<path d="M194.05 41C180.289 41 180.289 20.8857 193.647 20.8857C198.05 20.8857 201.096 23.0434 200.803 25.4937L188.95 33.1737C189.72 36.6846 191.885 39.6103 195.738 39.72C197.793 39.7931 199.848 39.0617 201.793 37.3429L202.05 37.5623C200.069 39.8297 197.06 41 194.05 41ZM196.876 27.5417C196.436 23.6651 195.188 21.2514 193.096 21.2514C189.757 21.2514 187.849 27.5051 188.84 32.7349L196.876 27.5417Z" fill="#663141"/>
<path d="M220.299 26.3349L225.473 22.3851C226.757 21.3977 227.968 20.8857 228.959 20.8857C230.39 20.8857 231.344 21.9829 231.344 24.2869V37.4891C231.344 38.2937 231.785 38.6594 232.335 38.6594C232.959 38.6594 233.766 38.184 234.243 37.4891V37.5257C233.546 39.7931 231.638 40.9269 229.877 40.9269C228.152 40.9269 226.611 39.7931 226.611 37.4891V26.5909C226.611 24.872 225.95 24.0674 224.959 24.0674C224.372 24.0674 223.675 24.36 222.904 24.9451L220.299 26.8834V40.9269H220.262C219.492 40.8171 218.721 40.744 217.95 40.744C217.18 40.744 216.409 40.8171 215.602 40.9269H215.565V26.5909C215.565 24.872 214.905 24.0674 213.914 24.0674C213.327 24.0674 212.63 24.36 211.859 24.9451L209.253 26.8834V40.9269H209.217C208.446 40.8171 207.676 40.744 206.905 40.744C206.134 40.744 205.364 40.8171 204.556 40.9269H204.52V27.0297C204.52 25.6766 204.3 24.0674 202.942 23.4091V23.3726C205.144 22.8606 207.345 21.9829 209.18 20.8126H209.253V26.3349L214.428 22.3851C215.712 21.3977 216.923 20.8857 217.914 20.8857C219.345 20.8857 220.299 21.9829 220.299 24.2869V26.3349Z" fill="#663141"/>
<path d="M236.074 25.9691C236.074 23.1166 237.725 20.9223 243.046 20.9223C248.771 20.9223 250.936 23.4457 250.936 26.1886C249.321 26.408 247.56 27.1029 246.275 28.4926H246.202C246.202 25.6766 245.872 21.288 243.193 21.288C241.578 21.288 240.808 22.8606 240.808 24.4331C240.808 30.4309 252 30.3211 252 35.9166C252 38.696 249.248 40.9634 243.89 40.9634C238.239 40.9634 235.267 38.44 235.267 35.6606C236.881 35.4777 238.643 34.7829 239.964 33.3566H240C240 36.1726 240.624 40.5977 244 40.5977C245.688 40.5977 246.973 39.464 246.973 37.7086C246.973 32.6617 236.074 31.528 236.074 25.9691Z" fill="#663141"/>
</svg>
