<svg xmlns="http://www.w3.org/2000/svg" width="727" height="707" viewBox="0 0 727 707" fill="none">
<path d="M373 651C542.551 651 680 513.551 680 344C680 174.449 542.551 37 373 37C203.449 37 66 174.449 66 344C66 513.551 203.449 651 373 651Z" fill="#EFE8E3"/>
<path d="M135.234 77.8763L135.234 77.8764C61.6978 136.096 15.2297 219.467 4.39841 312.624C-6.43284 405.78 19.6576 497.59 77.877 571.126C136.096 644.662 219.467 691.13 312.624 701.961C405.781 712.802 497.601 686.702 571.127 628.483C644.662 570.263 691.13 486.892 701.962 393.735C712.793 300.578 686.692 208.769 628.483 135.233L626.915 136.474L628.483 135.233C570.264 61.6972 486.893 15.2291 393.736 4.39785C300.579 -6.43342 208.769 19.6672 135.234 77.8763ZM139.616 83.4026C211.681 26.3518 301.641 0.782373 392.934 11.4011C484.227 22.0198 565.916 67.5517 622.967 139.616C680.018 211.68 705.587 301.64 694.968 392.933C684.35 484.227 638.818 565.916 566.754 622.966C494.69 680.017 404.729 705.587 313.436 694.968C222.143 684.349 140.454 638.817 83.4031 566.753C26.3524 494.689 0.782927 404.729 11.4016 313.436C22.0204 222.142 67.5523 140.453 139.616 83.4026Z" fill="#EFE8E3" stroke="#EFE8E3" stroke-width="4"/>
<path d="M43.8322 304.769L43.8321 304.769C33.2962 395.424 58.6891 484.761 115.336 556.323C171.983 627.885 253.114 673.096 343.769 683.642L343.942 682.152L343.769 683.642C434.424 694.178 523.761 668.785 595.323 612.138C666.885 555.491 712.096 474.36 722.642 383.705L721.152 383.532L722.642 383.705C733.178 293.05 707.785 203.713 651.138 132.151C594.491 60.5891 513.36 15.3781 422.705 4.83216L422.705 4.83215C332.05 -5.70377 242.713 19.6891 171.151 76.336C99.5891 132.983 54.3781 214.114 43.8322 304.769ZM174.853 81.0082C245.171 25.3451 332.944 0.398016 422.019 10.7521C511.094 21.1161 590.803 65.5351 646.466 135.843C702.129 206.161 727.076 293.934 716.722 383.009C706.368 472.084 661.939 551.793 591.631 607.456C521.313 663.119 433.54 688.066 344.465 677.712C255.391 667.358 175.681 622.929 120.018 552.621C64.3551 482.303 39.408 394.53 49.7621 305.455C60.1161 216.381 104.545 136.671 174.853 81.0082Z" fill="#DFD9D7" stroke="#DFD9D7" stroke-width="3"/>
<path d="M535.678 333.099H525.975V324.851C525.975 321.941 524.035 320 521.124 320C518.213 320 516.272 321.941 516.272 324.851V333.099H506.569C503.658 333.099 501.718 335.04 501.718 337.95C501.718 340.861 503.658 342.802 506.569 342.802H516.272V351.05C516.272 353.96 518.213 355.901 521.124 355.901C523.549 355.901 525.975 353.96 525.975 351.05V342.802H535.678C538.589 342.802 540.53 340.861 540.53 337.95C540.53 335.04 538.589 333.099 535.678 333.099Z" fill="#E0C0B0"/>
<path d="M307.658 186.099H297.955V177.851C297.955 174.941 296.015 173 293.104 173C290.193 173 288.252 174.941 288.252 177.851V186.099H278.549C275.639 186.099 273.698 188.04 273.698 190.95C273.698 193.861 275.639 195.802 278.549 195.802H288.252V204.05C288.252 206.96 290.193 208.901 293.104 208.901C296.015 208.901 297.955 206.96 297.955 204.05V195.802H307.658C310.569 195.802 312.51 193.861 312.51 190.95C312.51 188.04 310.569 186.099 307.658 186.099Z" fill="#E0C0B0"/>
<path d="M262.054 212.297H256.233V207.446C256.233 204.535 254.292 202.594 251.381 202.594C248.47 202.594 246.53 204.535 246.53 207.446V212.297H240.708C237.797 212.297 235.856 214.238 235.856 217.149C235.856 220.06 237.797 222 240.708 222H246.53V226.852C246.53 229.763 248.47 231.703 251.381 231.703C254.292 231.703 256.233 229.763 256.233 226.852V222H262.054C264.965 222 266.906 219.574 266.906 217.149C266.906 214.238 264.965 212.297 262.054 212.297Z" fill="#E0C0B0"/>
<path d="M548.292 380.643H542.47V375.792C542.47 372.881 540.53 370.94 537.619 370.94C534.708 370.94 532.767 372.881 532.767 375.792V380.643H526.946C524.035 380.643 522.094 382.584 522.094 385.495C522.094 388.406 524.035 390.346 526.946 390.346H532.767V395.198C532.767 398.109 534.708 400.049 537.619 400.049C540.53 400.049 542.47 398.109 542.47 395.198V390.346H548.292C551.203 390.346 553.144 388.406 553.144 385.495C553.144 383.069 550.718 380.643 548.292 380.643Z" fill="#E0C0B0"/>
<path d="M487.649 250.139C487.649 249.653 487.163 249.168 487.163 248.683C486.678 248.198 486.678 247.713 486.193 247.713L378.005 180.277H377.52H377.035C376.55 180.277 376.064 179.792 375.579 179.792C375.094 179.792 374.609 179.792 374.124 180.277H373.639H373.153L265.936 247.228C265.451 247.713 264.965 247.713 264.965 248.198C264.48 248.683 264.48 249.168 264.48 249.653V250.139V250.624V444.683V445.168V445.653C264.48 446.139 264.965 446.624 264.965 447.109C264.965 447.109 264.965 447.109 265.451 447.594L265.936 448.079L266.421 448.564C266.421 448.564 266.421 448.564 266.906 449.049L374.124 515.515H374.609H375.094C375.579 515.515 376.064 516 376.55 516C377.035 516 377.52 516 378.005 515.515H378.49H378.975L486.193 449.049C486.193 449.049 486.193 449.049 486.678 448.564L487.163 448.079L487.649 447.594C487.649 447.594 487.649 447.594 488.134 447.109C488.619 446.624 488.619 446.139 488.619 445.653V445.168V444.683V251.109C487.649 251.109 487.649 250.624 487.649 250.139ZM380.431 193.376L474.064 251.109L433.797 276.822L380.431 246.257V193.376V193.376ZM370.728 193.376V246.257L317.361 276.822L277.094 251.109L370.728 193.376ZM273.213 260.327L312.51 285.554V410.238L273.213 435.465V260.327ZM371.213 502.901H370.728L277.579 444.683L317.847 418.97L371.213 449.535V502.901ZM375.579 441.287L322.213 410.238V285.554L375.579 254.505L428.946 285.554V410.238L375.579 441.287ZM380.431 502.901V449.535L433.797 418.97L474.064 444.683L380.431 502.901ZM477.946 435.95L438.649 410.723V285.554L477.946 260.327V435.95Z" fill="#E0C0B0"/>
<path d="M379.946 272.456C378.49 270.515 375.579 269.545 373.153 271L336.767 291.861C335.312 292.832 334.342 294.287 334.342 296.228V385.98C334.342 388.891 336.282 390.832 339.193 390.832C342.104 390.832 344.045 388.891 344.045 385.98V298.654L378.005 279.248C380.431 277.792 380.916 274.881 379.946 272.456Z" fill="#E0C0B0"/>
</svg>