<svg xmlns="http://www.w3.org/2000/svg" width="727" height="707" viewBox="0 0 727 707" fill="none">
<path d="M373 651C542.551 651 680 513.551 680 344C680 174.449 542.551 37 373 37C203.449 37 66 174.449 66 344C66 513.551 203.449 651 373 651Z" fill="#EFE8E3"/>
<path d="M135.234 77.8763L135.234 77.8764C61.6978 136.096 15.2297 219.467 4.39841 312.624C-6.43284 405.78 19.6576 497.59 77.877 571.126C136.096 644.662 219.467 691.13 312.624 701.961C405.781 712.802 497.601 686.702 571.127 628.483C644.662 570.263 691.13 486.892 701.962 393.735C712.793 300.578 686.692 208.769 628.483 135.233L626.915 136.474L628.483 135.233C570.264 61.6972 486.893 15.2291 393.736 4.39785C300.579 -6.43342 208.769 19.6672 135.234 77.8763ZM139.616 83.4026C211.681 26.3518 301.641 0.782373 392.934 11.4011C484.227 22.0198 565.916 67.5517 622.967 139.616C680.018 211.68 705.587 301.64 694.968 392.933C684.35 484.227 638.818 565.916 566.754 622.966C494.69 680.017 404.729 705.587 313.436 694.968C222.143 684.349 140.454 638.817 83.4031 566.753C26.3524 494.689 0.782927 404.729 11.4016 313.436C22.0204 222.142 67.5523 140.453 139.616 83.4026Z" fill="#EFE8E3" stroke="#EFE8E3" stroke-width="4"/>
<path d="M43.8322 304.769L43.8321 304.769C33.2962 395.424 58.6891 484.761 115.336 556.323C171.983 627.885 253.114 673.096 343.769 683.642L343.942 682.152L343.769 683.642C434.424 694.178 523.761 668.785 595.323 612.138C666.885 555.491 712.096 474.36 722.642 383.705L721.152 383.532L722.642 383.705C733.178 293.05 707.785 203.713 651.138 132.151C594.491 60.5891 513.36 15.3781 422.705 4.83216L422.705 4.83215C332.05 -5.70377 242.713 19.6891 171.151 76.336C99.5891 132.983 54.3781 214.114 43.8322 304.769ZM174.853 81.0082C245.171 25.3451 332.944 0.398016 422.019 10.7521C511.094 21.1161 590.803 65.5351 646.466 135.843C702.129 206.161 727.076 293.934 716.722 383.009C706.368 472.084 661.939 551.793 591.631 607.456C521.313 663.119 433.54 688.066 344.465 677.712C255.391 667.358 175.681 622.929 120.018 552.621C64.3551 482.303 39.408 394.53 49.7621 305.455C60.1161 216.381 104.545 136.671 174.853 81.0082Z" fill="#DFD9D7" stroke="#DFD9D7" stroke-width="3"/>
<path d="M520.729 320.936C521.753 314.28 521.754 309.16 521.754 301.992C521.754 219.56 454.682 153 372.762 153C290.33 153 223.769 220.072 223.769 301.992C223.769 307.624 224.281 313.256 224.793 319.4C221.721 321.448 219.161 324.008 217.113 327.08C214.041 332.712 213.017 338.856 215.065 345C216.601 351.144 220.697 356.264 226.329 359.336C229.913 361.384 234.009 362.408 238.105 362.408C239.129 362.408 240.153 362.408 241.177 362.408C237.593 365.992 234.521 370.088 233.497 375.208C232.473 381.352 233.497 387.496 237.081 393.128C240.665 398.248 245.785 401.832 251.929 403.368C253.465 403.88 255.001 403.88 256.537 403.88C260.121 403.88 263.705 402.856 266.777 401.32C261.145 411.56 263.193 424.36 272.921 432.04C277.017 435.112 282.137 437.16 287.257 437.16C288.281 437.16 289.305 437.16 290.329 437.16C294.937 436.648 299.033 434.6 302.617 431.528C313.369 437.16 324.633 441.768 336.409 444.328C322.585 447.912 303.641 453.544 297.497 458.664C292.377 462.76 289.305 468.904 288.793 475.56C288.281 482.216 290.329 488.36 294.425 493.48C298.521 498.6 304.665 501.672 311.321 502.184C312.345 502.184 312.857 502.184 313.369 502.184C319.001 502.184 324.633 500.136 329.241 496.552C337.945 489.384 353.306 455.08 356.378 447.912C359.45 448.424 363.033 448.424 366.105 448.424C359.449 462.76 344.602 494.504 344.602 506.28C344.602 522.664 357.913 535.976 374.298 535.976C390.682 535.976 403.993 522.664 403.993 506.28C403.993 494.504 389.146 462.76 382.49 448.424C385.562 448.424 388.634 447.912 391.706 447.4C391.706 447.4 391.706 447.4 391.706 447.912C394.778 454.568 409.625 488.872 418.841 496.552C423.449 500.136 429.082 502.184 434.714 502.184C441.882 502.184 449.05 499.112 453.658 493.48C457.754 488.36 459.801 482.216 459.289 475.56C458.777 468.904 455.706 463.272 450.586 458.664C444.442 453.544 424.985 447.912 411.161 444.328C421.913 441.768 432.665 437.672 442.905 432.04C447.513 435.624 452.634 437.672 458.266 437.672C463.386 437.672 467.994 436.136 472.602 433.064C482.33 425.896 484.89 412.584 478.746 402.856C481.818 404.392 485.913 405.416 489.497 405.416C491.033 405.416 492.57 405.416 493.594 404.904C499.738 403.88 505.369 400.296 508.953 395.176C515.609 385.448 514.074 372.136 505.37 364.456C506.394 364.456 507.417 364.968 508.953 364.968C519.193 364.968 528.922 358.312 531.482 347.56C533.018 336.808 528.921 326.568 520.729 320.936ZM231.449 350.632C228.377 349.096 226.329 346.024 225.305 342.44C224.281 338.856 224.793 335.272 226.841 332.2C228.377 329.128 231.449 327.08 235.033 326.056C236.057 325.544 237.593 325.544 238.617 325.544C240.665 325.544 243.225 326.056 245.273 327.08C248.345 328.616 250.393 331.688 251.417 335.272C253.465 342.44 249.369 349.608 242.201 351.656C238.105 352.68 234.521 352.168 231.449 350.632ZM269.849 382.888C269.337 385.96 267.289 389.032 264.217 391.08C261.145 393.128 257.561 393.64 253.977 393.128C250.393 392.616 247.321 390.568 245.273 387.496C243.225 384.424 242.713 380.84 243.225 377.256C243.737 373.672 245.785 370.6 248.857 368.552C250.905 367.016 253.977 366.504 256.537 366.504C260.633 366.504 265.241 368.552 267.801 372.648C269.849 375.72 270.361 379.304 269.849 382.888ZM299.033 420.776C296.473 423.848 293.401 425.384 289.817 425.896C286.233 426.408 282.649 425.384 280.089 423.336C274.457 418.728 272.921 410.536 277.529 404.392C280.089 400.808 284.185 399.272 288.281 399.272C291.353 399.272 293.913 400.296 296.473 401.832C302.105 406.44 303.641 414.632 299.033 420.776ZM323.097 487.848C320.025 490.408 316.441 491.432 312.857 490.92C309.273 490.408 305.689 488.872 303.129 485.8C300.569 482.728 299.545 479.144 300.057 475.56C300.569 471.976 302.105 468.392 305.177 465.832C309.273 462.248 328.217 456.616 343.577 452.52C336.409 467.368 327.193 484.264 323.097 487.848ZM393.753 505.256C393.241 516.008 384.538 524.712 374.298 524.712C363.546 524.712 354.841 516.008 354.841 505.256C354.841 497.576 365.082 473.512 374.298 455.08C383.002 473.512 393.753 497.576 393.753 505.256ZM443.418 465.832C445.978 468.392 447.514 471.976 448.026 475.56C448.538 479.144 447.001 483.24 444.953 485.8C439.833 491.944 430.618 492.968 424.986 487.848C420.89 484.264 411.674 466.856 405.018 452.52C420.378 456.616 438.81 461.736 443.418 465.832ZM464.922 424.36C458.778 428.968 450.586 427.432 445.978 421.8C441.37 415.656 442.906 407.464 448.538 402.856C451.098 400.808 453.657 400.296 456.729 400.296C460.825 400.296 464.922 402.344 467.482 405.416C472.09 411.56 471.066 419.752 464.922 424.36ZM469.017 367.528C463.897 375.208 463.897 384.936 467.993 392.616C460.313 388.52 450.585 389.032 442.905 394.664C433.689 401.32 431.13 413.096 435.738 423.336C416.282 433.064 395.289 438.184 373.273 438.184C351.257 438.184 329.241 432.552 309.785 422.824C314.393 413.096 311.321 401.32 302.617 394.152C295.449 388.52 285.721 388.008 277.529 391.592C279.065 389.544 279.577 386.984 280.089 384.424C281.113 378.28 280.089 372.136 276.505 366.504C271.385 358.824 262.169 355.24 253.465 356.264C260.121 350.632 263.193 341.416 260.633 332.2C259.097 326.056 255.001 320.936 249.369 317.864C244.761 315.304 239.641 314.28 234.521 315.304C234.009 310.696 234.009 306.088 234.009 301.992C234.009 225.192 296.473 163.24 373.273 163.24C450.074 163.24 512.026 225.704 512.026 301.992C512.026 308.136 512.025 312.232 511.513 316.84C499.737 314.792 488.473 321.96 484.889 333.736C482.329 342.952 485.401 351.656 492.057 357.8C489.497 357.288 486.938 357.288 484.378 357.8C478.234 358.824 472.601 362.408 469.017 367.528ZM499.225 388.52C497.177 391.592 494.105 393.64 490.521 394.152C486.937 394.664 483.353 394.152 480.281 392.104C477.209 390.056 475.162 386.984 474.65 383.4C474.138 379.816 474.65 376.232 476.698 373.16C478.746 370.088 481.817 368.04 485.401 367.528C486.425 367.528 486.937 367.528 487.961 367.528C490.521 367.528 493.082 368.552 495.642 370.088C498.714 372.136 500.761 375.208 501.273 378.792C502.297 382.376 501.273 385.96 499.225 388.52ZM520.217 343.976C518.169 351.144 510.489 355.24 503.833 353.192C496.665 351.144 492.569 343.464 494.617 336.808C496.153 330.664 501.786 327.08 507.418 327.08C508.442 327.08 509.977 327.08 511.001 327.592C518.169 329.128 522.265 336.808 520.217 343.976Z" fill="#E0C0B0"/>
</svg>