<svg xmlns="http://www.w3.org/2000/svg" width="727" height="707" viewBox="0 0 727 707" fill="none">
<path d="M373 651C542.551 651 680 513.551 680 344C680 174.449 542.551 37 373 37C203.449 37 66 174.449 66 344C66 513.551 203.449 651 373 651Z" fill="#EFE8E3"/>
<path d="M135.234 77.8763L135.234 77.8764C61.6978 136.096 15.2297 219.467 4.39841 312.624C-6.43284 405.78 19.6576 497.59 77.877 571.126C136.096 644.662 219.467 691.13 312.624 701.961C405.781 712.802 497.601 686.702 571.127 628.483C644.662 570.263 691.13 486.892 701.962 393.735C712.793 300.578 686.692 208.769 628.483 135.233L626.915 136.474L628.483 135.233C570.264 61.6972 486.893 15.2291 393.736 4.39785C300.579 -6.43342 208.769 19.6672 135.234 77.8763ZM139.616 83.4026C211.681 26.3518 301.641 0.782373 392.934 11.4011C484.227 22.0198 565.916 67.5517 622.967 139.616C680.018 211.68 705.587 301.64 694.968 392.933C684.35 484.227 638.818 565.916 566.754 622.966C494.69 680.017 404.729 705.587 313.436 694.968C222.143 684.349 140.454 638.817 83.4031 566.753C26.3524 494.689 0.782927 404.729 11.4016 313.436C22.0204 222.142 67.5523 140.453 139.616 83.4026Z" fill="#EFE8E3" stroke="#EFE8E3" stroke-width="4"/>
<path d="M43.8322 304.769L43.8321 304.769C33.2962 395.424 58.6891 484.761 115.336 556.323C171.983 627.885 253.114 673.096 343.769 683.642L343.942 682.152L343.769 683.642C434.424 694.178 523.761 668.785 595.323 612.138C666.885 555.491 712.096 474.36 722.642 383.705L721.152 383.532L722.642 383.705C733.178 293.05 707.785 203.713 651.138 132.151C594.491 60.5891 513.36 15.3781 422.705 4.83216L422.705 4.83215C332.05 -5.70377 242.713 19.6891 171.151 76.336C99.5891 132.983 54.3781 214.114 43.8322 304.769ZM174.853 81.0082C245.171 25.3451 332.944 0.398016 422.019 10.7521C511.094 21.1161 590.803 65.5351 646.466 135.843C702.129 206.161 727.076 293.934 716.722 383.009C706.368 472.084 661.939 551.793 591.631 607.456C521.313 663.119 433.54 688.066 344.465 677.712C255.391 667.358 175.681 622.929 120.018 552.621C64.3551 482.303 39.408 394.53 49.7621 305.455C60.1161 216.381 104.545 136.671 174.853 81.0082Z" fill="#DFD9D7" stroke="#DFD9D7" stroke-width="3"/>
<path d="M409.507 425.309L395.589 374.856C395.589 374.276 395.009 374.276 395.009 373.696C395.009 373.116 394.429 373.116 394.429 372.536C394.429 372.536 394.429 372.536 394.429 371.956C393.85 371.376 393.85 371.376 393.27 371.376H392.69C392.11 371.376 391.53 370.796 390.95 370.796H296.423L263.367 338.321L294.683 307.005C300.482 301.206 303.962 293.087 303.962 284.968C303.962 276.269 300.482 268.73 294.683 262.931C288.884 257.132 280.765 253.652 272.646 253.652C263.947 253.652 256.408 257.132 250.609 262.931C244.81 268.73 241.33 276.849 241.33 284.968C241.33 293.667 244.81 301.206 250.609 307.005C252.929 309.325 256.408 309.325 258.728 307.005C261.048 304.685 261.048 301.206 258.728 298.886C255.248 295.407 252.929 290.187 252.929 284.968C252.929 279.749 255.248 274.529 258.728 271.05C266.267 263.511 279.025 263.511 287.144 271.05C294.683 278.589 294.683 291.347 287.144 299.466L255.248 330.202L214.654 290.187C212.334 287.868 208.855 287.868 206.535 290.187C204.215 292.507 204.215 295.987 206.535 298.306L247.13 338.321L215.234 370.216C207.695 377.755 194.937 377.755 186.818 370.216C179.279 362.678 179.279 349.919 186.818 341.8C194.357 334.261 207.695 334.261 215.234 341.8C217.554 344.12 221.033 344.12 223.353 341.8C225.672 339.481 225.672 336.001 223.353 333.681C217.554 327.882 209.435 324.403 201.316 324.403C192.617 324.403 185.078 327.882 179.279 333.681C173.48 339.481 170 347.6 170 355.718C170 364.417 173.48 371.956 179.279 377.755C185.078 383.555 193.197 387.034 201.316 387.034C210.015 387.034 217.554 383.555 223.353 377.755L255.248 345.86L287.144 377.755L287.724 472.863C287.724 473.442 287.724 474.022 288.304 474.602V475.182C288.304 475.762 288.884 476.342 288.884 476.342C288.884 476.342 288.884 476.342 289.464 476.342C290.044 476.922 290.044 476.922 290.624 476.922C290.624 476.922 291.204 476.922 291.204 477.502C291.204 477.502 291.204 477.502 291.783 477.502L342.816 492C343.396 492 343.976 492 344.556 492C346.296 492 347.456 491.42 348.616 490.26L407.768 431.108C409.507 429.368 410.087 427.629 409.507 425.309ZM375.292 382.395L359.054 399.213L320.779 382.395H375.292ZM349.776 407.911L325.419 432.268L306.281 388.194L349.776 407.911ZM299.322 400.952L317.3 440.967L299.322 458.944V400.952ZM343.396 480.981L305.122 469.963L326.579 448.506L364.853 459.524L343.396 480.981ZM335.278 439.807L357.315 417.19L366.013 448.506L335.278 439.807ZM377.612 446.186L366.593 407.911L386.89 387.614L397.909 425.889L377.612 446.186Z" fill="#E0C0B0"/>
<path d="M567.246 329.042C554.488 316.284 534.77 316.284 522.592 328.462L490.696 360.358L458.801 328.462L458.221 233.355C458.221 232.775 458.221 232.195 457.641 231.615V231.035C457.641 230.455 457.061 229.875 457.061 229.875C457.061 229.875 457.061 229.875 456.481 229.875C455.901 229.295 455.901 229.295 455.321 229.295C455.321 229.295 454.741 229.295 454.741 228.715C454.741 228.715 454.741 228.715 454.161 228.715L403.128 214.217C401.388 213.638 399.069 214.217 397.329 215.957L337.597 274.529C335.857 276.269 335.277 278.009 335.857 280.328L350.355 331.362C350.355 331.362 350.355 331.362 350.355 331.941C350.355 331.941 350.355 332.521 350.935 332.521C350.935 333.101 351.515 333.101 351.515 333.681C351.515 333.681 351.515 333.681 351.515 334.261C352.095 334.841 352.095 334.841 352.675 334.841H353.255C353.835 334.841 354.415 335.421 354.995 335.421L449.522 336.001L482.577 368.476L451.262 399.792C445.462 405.591 441.983 413.71 441.983 421.829C441.983 430.528 445.462 438.067 451.262 443.866C457.061 449.665 465.18 453.145 473.299 453.145C481.997 453.145 489.536 449.665 495.336 443.866C507.514 431.688 507.514 411.391 495.336 399.212C493.016 396.893 489.536 396.893 487.217 399.212C484.897 401.532 484.897 405.011 487.217 407.331C490.696 410.811 493.016 416.03 493.016 421.249C493.016 426.469 490.696 431.688 487.217 435.167C479.678 442.706 466.92 442.706 458.801 435.167C451.262 427.628 451.262 414.87 458.801 406.751L490.696 376.595L531.291 416.61C532.451 417.77 533.61 418.35 535.35 418.35C537.09 418.35 538.25 417.77 539.41 416.61C541.729 414.29 541.729 410.811 539.41 408.491L498.815 368.476L530.711 336.581C538.25 329.042 551.008 329.042 559.127 336.581C566.666 344.12 566.666 356.878 559.127 364.997C551.588 372.536 538.25 372.536 530.711 364.997C528.391 362.677 524.912 362.677 522.592 364.997C520.272 367.317 520.272 370.796 522.592 373.116C534.77 385.294 555.068 385.294 567.246 373.116C573.045 367.317 576.525 359.198 576.525 351.079C576.525 342.38 573.045 334.841 567.246 329.042ZM402.548 225.816L440.823 236.834L419.366 258.291L381.091 247.273L402.548 225.816ZM410.667 266.99L388.63 289.607L379.931 258.291L410.667 266.99ZM348.036 280.908L368.333 260.611L379.351 298.886L359.054 319.183L348.036 280.908ZM370.073 324.402L386.89 307.585L424.585 324.402H370.073ZM396.169 298.886L420.526 274.529L439.663 318.603L396.169 298.886ZM446.622 305.845L428.645 265.83L446.622 247.853V305.845Z" fill="#E0C0B0"/>
</svg>