<svg xmlns="http://www.w3.org/2000/svg" viewBox="0 0 546.43 180"><defs><style>.cls-1{fill:#fff;}.cls-2{fill:#b19672;}</style></defs><title>GIA_Logo_WEB</title><g id="Layer_5" data-name="Layer 5"><path class="cls-1" d="M536.32,50.15a10.09,10.09,0,1,1,10.11-10A10,10,0,0,1,536.32,50.15Zm0-19.26a9.18,9.18,0,1,0,9.21,9.21A9.15,9.15,0,0,0,536.32,30.89Zm-.11,2.75a8.65,8.65,0,0,1,3,.31,3.06,3.06,0,0,1,2,2.94,3,3,0,0,1-2.6,3c1.22.51,1.58,1.25,1.81,2.67a11.53,11.53,0,0,0,1,3.8h-2.58a8.74,8.74,0,0,1-.68-2.78c-.42-2.69-.59-2.94-3.79-2.94v5.72h-2.27V33.64Zm-1.84,5.18h1.86c.95,0,2.73,0,2.73-1.75a1.62,1.62,0,0,0-.91-1.51,6.41,6.41,0,0,0-2.24-.17h-1.44Z"/><path class="cls-1" d="M510.63,145.5c-.63-1.76-1.35-4.11-1.35-4.11L497,108.85a1.55,1.55,0,0,0-1.53-1.07H461.24c-.62,0-1.07.4-1.38,1.22L451.57,131a26.12,26.12,0,0,0-2.3,9.37,4.49,4.49,0,0,0,1.38,3.53c.92.82,2.5,1.22,4.76,1.22h2.3c1.53,0,2.3.42,2.3,1.23,0,1-.87,1.54-2.61,1.54-1.94,0-4.7-.06-8.28-.15q-6-.31-8-.31c-.3,0-1.43,0-3.38.15-1.53,0-3.71.05-6.52.16s-5.55.15-8.21.15c-1.95,0-2.92-.51-2.92-1.54,0-.81.61-1.23,1.84-1.23a39.37,39.37,0,0,0,4.76-.3,11.43,11.43,0,0,0,7.68-3.92,36.83,36.83,0,0,0,5.37-9.9l38.53-96.4a25.7,25.7,0,0,1,2.3-4.83,2.55,2.55,0,0,1,2-1.31c1.14,0,2.41,1.64,3.84,4.92q1.08,2.3,4.61,11.2l9.21,23.18,14.66,36.46L519,114.3l5.52,13.43q3.84,9.21,7.06,12.59a13.58,13.58,0,0,0,6.45,4.14,32.84,32.84,0,0,0,6.45.61c1.33,0,2,.42,2,1.23,0,.62-.45,1-1.38,1.23a32,32,0,0,1-5.68.31l-14.65-.33c-4.35,0-8.71.32-12,.32C511.76,147.83,511.26,147.25,510.63,145.5Zm-46.32-45.4h28.24c.51,0,.77-.31.77-.92L479.5,61.26v-.15c-.2-.82-.45-1.23-.76-1.23s-.72.46-.93,1.38L463.7,99C463.7,99.74,463.9,100.1,464.31,100.1Z"/><path class="cls-1" d="M322.65,89.45c0,.37-.08,10.77-.08,10.77-.1,3.07-.15,11.36-.15,20.54v16.85a15.09,15.09,0,0,1-.3,3.9,3.47,3.47,0,0,1-1.69,1.61,59.05,59.05,0,0,1-16.84,5.21A121.41,121.41,0,0,1,283.53,150a102,102,0,0,1-27.25-3.52,67,67,0,0,1-22.5-10.87,51,51,0,0,1-15.39-18.84Q212.8,105.31,212.8,90q0-17.14,7.58-30.16a54.68,54.68,0,0,1,19.06-19.9,62.66,62.66,0,0,1,19.75-8,107.55,107.55,0,0,1,21.43-2c2.56,0,5.16.07,7.81.23s5.41.38,8.27.69,5.2.59,7,.84a38.94,38.94,0,0,1,4,.69c2,.41,4.19.77,6.43,1.07s4.14.51,5.67.61S322,34.83,322,36a16.57,16.57,0,0,1-.15,1.68c-.21,2.25-.41,5.08-.62,8.5s-.3,8.4-.3,14.93c0,2.14-.56,3.21-1.69,3.21-.81,0-1.32-.66-1.53-2a34,34,0,0,0-1.53-6.81,16.19,16.19,0,0,0-3.68-5.9c-2.75-3-7.16-5.69-13.24-8.18a54.29,54.29,0,0,0-20.89-3.76,67.72,67.72,0,0,0-15.77,1.76A36.4,36.4,0,0,0,248,47.12,37.11,37.11,0,0,0,237.6,61.9q-3.67,9.1-3.67,22.73a67.81,67.81,0,0,0,3.75,22.82,54.26,54.26,0,0,0,10.79,18.37,48.66,48.66,0,0,0,16.92,12.09,54.14,54.14,0,0,0,21.81,4.29q4.29,0,7.43-.31a18.05,18.05,0,0,0,5.59-1.38q2.91-1.37,2.91-5.66V120.46c0-9-.05-17.17-.15-20.24a11.24,11.24,0,0,0-1.53-6q-1.38-2-5.06-2.76a27,27,0,0,0-6-.46c-1.53,0-2.3-.41-2.3-1.22,0-1,1.08-1.53,3.22-1.53q4.14,0,13.93.3c4.49.11,7.25.15,8.27.15s3.87-.09,8-.27A1,1,0,0,1,322.65,89.45Z"/><path class="cls-1" d="M370.61,103.46V52.94c0-3.37-.1-6.32-.3-8.88q-.46-7.5-5.21-8.57a21.55,21.55,0,0,0-5.51-.61c-1.63,0-2.45-.51-2.45-1.53,0-.82,1.22-1.23,3.68-1.23q2.91,0,11.17.31,6.43.15,8.73.15,1.83,0,7.5-.15c5.31-.21,9-.31,11.18-.31s3.21.41,3.21,1.23c0,1-.82,1.53-2.45,1.53a28.49,28.49,0,0,0-4.59.46,5.85,5.85,0,0,0-4.22,2.6,15.07,15.07,0,0,0-1.45,6.12c-.2,2.56-.31,5.51-.31,8.88v50.52c0,9.5,0,16.71.09,21.67s.22,8.9.53,11.86a12.13,12.13,0,0,0,1.68,5.29q1.23,1.75,4.44,2.21c1.13.11,2.4.23,3.83.39a38.3,38.3,0,0,0,4,.23c1.63,0,2.45.41,2.45,1.22,0,1-1,1.53-2.91,1.53q-6.42,0-16.84-.31c-3.26-.09-5.61-.15-7-.15-.82,0-3.22.06-7.2.15q-8.88.31-12.09.31c-2,0-3.07-.5-3.07-1.53,0-.81.82-1.22,2.46-1.22a25.3,25.3,0,0,0,5.51-.62c2.44-.51,3.93-3.06,4.44-7.65q.45-4.44.61-11.86T370.61,103.46Z"/><path class="cls-2" d="M167.87,96.39c3.75-1.22,12.19-3.87,12.19-3.87l-11.94-4.7,11.68-5.26-12.36-3.32c3.36-2.14,11-6.41,11-6.41L165.8,70.75l10.11-7.67-12.68-.55,9.31-8.75-12.74.86c2.57-3,5.65-6.72,8.29-9.65l-12.57,2.19,7.11-10.58-12.19,3.65c1.75-3.54,5.87-11.35,5.87-11.35l-11.22,4.4L149.18,22l-11.05,6.16c1-3.82,2.41-8.41,3.36-12.26l-10.44,7.4s1.34-8.82,1.94-12.61l-9.54,8.47.64-12.75-.64.75c-2.64,2.89-5.22,6.11-8,8.71l-.76-12.58-7.46,10.3c-.68-3.9-1.56-8.5-2.09-12.46l-6.41,11L95.2,0l-5,11.58L85.32,0,81.63,12.14,75.47,1.05,73.17,13.5,65.84,3.17l-1,12.65L56.44,6.36l.44,12.71-9.49-8.42,1.85,12.53L39,15.72l3.13,12.35-11-6.3L35.7,33.7,24,28.75,29.78,40,17.66,36.33l7.08,10.53L12.23,44.55l8.12,9.84-12.59-1,9.09,8.91-12.66.33,10.09,7.88L1.71,72.25l10.93,6.64C8.88,80,4.06,81,.31,82.14L11.8,87.38C8.12,88.92,0,92.09,0,92.09s8.57,2.58,12.14,4L.77,102l12.54,2.65c-3.25,2.18-10.7,7.07-10.7,7.07l12.78,1.25c-2.93,2.57-9.85,8.26-9.85,8.26l12.85-.12L9.5,130.3l12.74-1.6c-2.39,3.15-7.83,10.17-7.83,10.17L27,136l-6.68,10.92,12.18-4.24L27,154.18s8.06-4.08,11.6-5.51l-4.1,12.17L45.25,154l-2.6,12.53,9.94-7.85L51.36,171.3l9.18-9.22L60.45,175s5.65-7.18,8.14-10c.54,3.92,1.57,12.77,1.57,12.77L77,166.86l2.75,12.55.56-1,5.31-10.72L89.84,180l4.45-11.89,5.53,11.36,3-12.56s4.77,7.57,6.77,11L111.2,165s5.43,7.08,8,10.15l.34-12.51,8.8,8.71-1-12.51,9.76,7.9c-.78-3.61-2.61-12.67-2.61-12.67,3.28,2.25,7.51,4.84,10.83,7l-4-12.24,11.5,5.67s-3.86-8.13-5.36-11.66c3.54,1.28,8.52,3,12,4.46.43.32-6.29-11.07-6.29-11.07l12.23,3L157.86,129l12.51,1.66-8.86-9.36,12.86.3-9.78-8.34,12.75-1.15-10.61-7.24,12.51-2.45Zm8.9-4.36-16.72-.61,7.54-3C170.65,89.6,173.7,90.81,176.77,92ZM157,108l6.19,4.75-7.9.56S156.48,109.74,157,108Zm-3-45,7.85.12c-2,1.78-3.81,3.59-6,5.2Zm2.49,7,7.77,1.17c-2.25,1.53-4.08,3.09-6.4,4.48Zm2.12,30.43,6.85,4.29-8,1.28Zm-.33-22.82,7.5,2-6.64,3.62Zm1,15.29,7.36,3.42c-2.53.82-5.22,1.43-7.79,2.15Zm-.11-7.72,7.65,2.65c-2.4,1-5,2.07-7.47,3.06Zm17.26-2.75L159.8,83.71l7.11-3.79ZM175,73.05l-16.32,3,6.56-4.64Zm-2.29-9.3L156.88,68.6l6.1-5.28Zm-3.32-9-15.36,6.68,5.5-6.07ZM153.2,61.17l-2.64-5.06c2.67-.29,7.83-.75,7.83-.75S155,59.14,153.2,61.17Zm11.64-14.83L150.2,54.77l4.69-6.69C158.14,47.51,161.63,46.94,164.84,46.34Zm-15.32,8-3.18-5,7.48-1.14ZM159.8,38.28,146.34,48l4.1-7C153.59,40.1,156.73,39.25,159.8,38.28ZM145.41,48h-.18l-3.5-4.36L149.45,41Zm8.21-17.14L141.45,42.14l3.37-7.77ZM140.45,42.32l-4.15-4c2.4-1.26,4.93-2.43,7.47-3.5ZM138.3,29.11l8.57-4.9L135.8,36.82ZM135,37l-4.54-3.43,6.86-4.28C136.7,31.75,135.66,34.39,135,37Zm-3.61-13,7.89-5.64-9.5,13.72Zm-2.46,8.32c-1.61-.81-3.22-2-4.9-2.89l6.43-5.07C129.87,27,129.38,29.71,128.88,32.35ZM123.8,20l7.29-6.61-8,14.64ZM116,16.61l6.5-7.29-6.36,15.43C116.12,22.29,116,19.36,116,16.61ZM123,20.36l-.68,8.14-5.14-2.39Zm-7.79-3.25.15,8.21L110,23.54v-.25ZM113.45,6.32l-4.64,16-1-8.14ZM107,14.79l1.11,8.14-5.68-1.18ZM104.11,4.55l-2.84,16.06-1.89-7.72Zm-5.52,8.88,2.08,8-5.76-.61ZM94.67,3.15l-1,16.71-2.92-7.45ZM90.18,13.33s2,4.74,2.85,7.38l-5.72-.1ZM85.06,3.22l.86,16.64-3.61-7.22ZM81.74,13.43l3.68,7.35-5.75.61ZM75.56,4.25s1.78,11,2.64,16.46l-4.35-6.78ZM73.42,14.71l4.46,6.93-5.57,1.29ZM66.2,6.39l4.47,15.93-5.11-6Zm-.81,11.07,5,5.9c-1.72.67-3.64,1.25-5.4,2Zm-2,7.43-5.8-5.34L57.21,9.47ZM63.31,26l-5.25,2.4-.53-7.83ZM20.88,90.56c-2.53-.85-5.1-2-7.64-3,2.5-1,5.18-1.81,7.79-2.67A38.37,38.37,0,0,0,20.88,90.56Zm.43,7.72L13.42,96s5-2.32,7.46-3.43ZM13.92,79.07l8-1.79-.67,5.64Zm7.64,21,1.11,5.68-8.07-1.39Zm-6-29.31c2.68-.4,5.47-.58,8.22-.86l-1.47,5.57ZM23,107.6c.6,1.72,1.14,3.64,1.78,5.43l-8.14-.43Zm1.13-39.3-5.49-5.24,7.68-.35ZM50.1,24.51l6.52,4.78-5.16,3.06Zm0,8.75-4.69,3.63-2.23-7.43ZM48.56,13.61l7.9,14.64L50,23.48Zm-8.07,5,9.43,13.71L43,28.44ZM33,24.47,43.85,37.18l-7.23-3.25ZM44.16,38l-4.28,4.1-3-7.19ZM26.1,31.18c4,3.89,8.21,7.5,12.25,11.39l-7.54-2.35ZM38.6,43.5c-1.21,1.5-2.46,3-3.68,4.46l-3.71-6.67ZM20,38.53c4.46,3.36,9,6.61,13.43,10l-7.83-1.7Zm13.78,10.9-3.07,4.78-.08.16L26,47.76ZM14.89,46.6,29.28,55l-7.84-.57Zm14.82,9.25L27.13,61l-5.2-5.71Zm-19-.7c5.11,2.22,9.93,4.52,15,6.7l-7.87.34ZM7.17,64.07,23.1,69.14,15,70ZM4.85,73.32,21.21,76.6l-8,1.71ZM3.56,82.85l16.61,1.46-7.71,2.58Zm-.25,9.5L20,92l-7.29,3.32Zm.86,9.53L20.6,99.63l-6.75,4.22ZM6,111.32l16.14-4-6.36,4.89Zm2.85,9.06,15.58-5.75-5.72,5.57Zm16.54-5.57,2.32,5.33-8.14.32ZM12.74,129.13l14.82-7.46-5.07,6.18Zm15.75-7.28c1,1.53,2,3.25,2.93,4.89l-8.07,1.35ZM17.6,137.35l13.82-9L27,135.13Zm14.85-8.89L35.88,133l-7.75,2Zm-9.28,16.6,13-10.53-3.59,7.2Zm13.89-10.53,3.86,4.1-7.3,2.88Zm1.49,13.11-8.84,4.22,11.64-11.7Zm3.76-7.54,4.29,3.67-7,3.54Zm2.82,13-8.25,5.21,10.29-13.1Zm3-8.14,4.61,3.25-6.57,4.43Zm4.42,12.72-7.85,6.14,8.83-14.25Zm1.83-8.36,5,2.67-6.07,5.29Zm-1.21,19,7.14-15,.12,7.78ZM61.75,172l5.74-15.82c.32,2.71.91,7.83.91,7.83Zm-.58-11.37.07-7.7L66.38,155Zm8,2.59-.87-7.46,5.39,1.53Zm2,11.41L75,158.17l1.62,7.67ZM77.19,165l-1.56-7.32,5.5.92Zm3.4,11.1,2-16.64,2.28,7.72Zm5-9.63-2.43-7.58,5.76.32Zm4.72,10.13.07-16.71,3.24,7.65Zm3.86-10s-2-5-3.29-7.39l5.67-.32ZM99.81,176,98,159.45l4,7Zm2.75-10.39-4-6.93,5.57-1Zm6.67,8.82-3.6-16.36,4.82,6.61Zm1.65-10.6-4.82-6.54,5.39-1.54Zm7.53,7.89L113.09,156l5.57,6.08Zm-5-16.57,5.14-2.14.12,7.81ZM90,154.86A64.86,64.86,0,1,1,154.89,90,64.86,64.86,0,0,1,90,154.86Zm70.15-34.2-7.77-.4,2.25-5.09Zm-3.8,7.45-7.72-1.05c1.19-2,2.75-4.89,2.75-4.89Zm-4.55,7.11-7.71-2,3.32-4.54ZM146.52,142l-7.36-3,3.68-4.21Zm-9-1.64,2.93,7.53-7-3.86Zm-5.82,4.89,2,7.79-6.57-4.54Zm-5.25,12.17-6-5.24,4.89-2.64Zm.92,11.1L120.2,153l6.28,5.57Zm8.26-4.92L127,149.35l6.51,4.53Zm7.89-5.42-10.21-13.29,7.14,4Zm7.24-6.31-11.6-12,7.43,3.07Zm6.52-7.05-13-10.71,7.92,2.05Zm5.52-7.71-14-9.18,8,1.09Zm4.72-8.33-14.83-7.6,7.84.34Zm3.85-8.74-15.6-5.9,7.93-.66Zm3-9L158,106.74l8.15-1.28ZM159.44,99.14,167.27,97l8.74,4.57ZM70.69,109.78m10.13.28M78,107.34h7.33v-.28l-3-2.19Zm-2.54,10.14v-9H71.12ZM81,104.35H71.62l4.43,2.86Zm1.51,4.1-4.2,8,7-7.59v-.36Zm-6.05,0v9.24l4.88-9.24Zm-6.51,0H67.06v.36l6.69,7.47Zm4.27-1.11-4-2.62-3.14,2.34v.28Zm25.44,7-1.75,1.16-2.41-2,.86-1.9Zm1.8-4.15,1.57-1.86.72.6.51-.61c-.25-.92-1-1.55-2.21-2.41l-.21-.17-.79.93.72.6-1.57,1.87Zm7-8L107,100.81l-1.49,1.77-.57-.47-.66.78,0,0a11.74,11.74,0,0,1,2.57,2.35l.75-.9-.56-.47Zm-1.3,6.34a2.91,2.91,0,0,0,0-.31c0-.07,0-.13,0-.19a2.84,2.84,0,0,0-.08-.34l0-.13-.12-.36,0-.08a1.94,1.94,0,0,0-.15-.36s0,0,0,0-.13-.25-.2-.37a0,0,0,0,0,0,0c-.07-.12-.14-.24-.22-.35a10.78,10.78,0,0,0-2.51-2.35l-.07,0-.63-.48-1.28,1.59c.18.15.39.3.59.45l.18.13a6.79,6.79,0,0,1,2.32,2.36v0a2.83,2.83,0,0,1,.21.6l.06.31c0,.08,0,.15,0,.23a3.34,3.34,0,0,1,0,.63c-.2,2-1.38,3.74-3.2,3.58l-4.49-3.77-1.08,1.28,4.62,3.89h0l-.85,2.29h4.5l-.38-2.07a6.13,6.13,0,0,0,2.92-5,5.49,5.49,0,0,0,0-.58,1.93,1.93,0,0,0,0-.24A2.71,2.71,0,0,0,107.21,108.46ZM96,117.39l-.66,1.77h11.17l-.38-1.77Zm-41.7,10,1.31,1.09-.7,3.84,1.48-.26,1.44-1.73,1.12.94L54.2,137l-1.12-.94,2.08-2.5-4.11.81-1.36-1.13,3.81-.7Zm-5.85-6.67.84,1L47.69,127,51.22,124l.93,1.13-5.75,4.78-.83-1,1.63-5.2-3.52,2.93-.93-1.12Zm-8-5.88.79-.44a4.54,4.54,0,0,1,.72-.32,3,3,0,0,1,.71-.15,2.43,2.43,0,0,1,.74.08,3,3,0,0,1,1,.48,2.93,2.93,0,0,1,.74.87,3.13,3.13,0,0,1,.37,1.09,2.83,2.83,0,0,1-.09,1.08,2.12,2.12,0,0,1-.31.68,2.18,2.18,0,0,1-.49.52,5.71,5.71,0,0,1-.65.46l-.78.45-.79.44a4.54,4.54,0,0,1-.72.32,2.53,2.53,0,0,1-.7.16,2.37,2.37,0,0,1-.74-.08,2.67,2.67,0,0,1-1-.48,3,3,0,0,1-.75-.88,2.88,2.88,0,0,1-.37-1.09,2.8,2.8,0,0,1,.09-1.07,2.12,2.12,0,0,1,.31-.68,3.05,3.05,0,0,1,.49-.53,5.71,5.71,0,0,1,.65-.46Zm.72,1.27c-.31.17-.57.32-.77.45a4.75,4.75,0,0,0-.48.34,1.3,1.3,0,0,0-.26.28,1.22,1.22,0,0,0-.14.28,1.14,1.14,0,0,0-.05.49,1.18,1.18,0,0,0,.17.52,1.25,1.25,0,0,0,.36.42,1,1,0,0,0,.45.21,1.06,1.06,0,0,0,.31,0,1.08,1.08,0,0,0,.38-.09,5,5,0,0,0,.53-.23l.78-.43c.31-.17.57-.32.77-.45s.35-.24.48-.34a1.63,1.63,0,0,0,.26-.28.92.92,0,0,0,.14-.28,1.24,1.24,0,0,0,.06-.48,1.34,1.34,0,0,0-.18-.53,1.25,1.25,0,0,0-.36-.42,1.13,1.13,0,0,0-.45-.2,1.55,1.55,0,0,0-.31,0,1.36,1.36,0,0,0-.38.09,4.26,4.26,0,0,0-.53.23Zm-8.73-11.93,7.73-.44.39,1.16-3.88,2.73,4.74-.12.38,1.16-6.48,4.24-.47-1.45L39,108.92l-4.91.18-.34-1,4-2.77-4.84.37Zm6-10.26.61,4.81-7.42.94-.18-1.44,6.12-.78-.43-3.37Zm0-8.22-.16,4.92-7.47-.24.16-4.92,1.3.05L32.29,89l1.75,0,.1-3,1.3.05-.1,2.94,1.82.06.11-3.46ZM36.35,76.2l.82.17a4.58,4.58,0,0,1,.77.21,3.26,3.26,0,0,1,.69.37,2.35,2.35,0,0,1,.57.6,2.14,2.14,0,0,1,.35,1,3.21,3.21,0,0,1,0,1.11L39,82.27l-7.33-1.48.54-2.65a3.23,3.23,0,0,1,.38-1,2.22,2.22,0,0,1,.71-.75A1.94,1.94,0,0,1,34,76a3.19,3.19,0,0,1,.75-.08,4.17,4.17,0,0,1,.78.1Zm-.29,1.43-.72-.13a4,4,0,0,0-.54-.07,1.7,1.7,0,0,0-.4,0,1.12,1.12,0,0,0-.31.1,1.31,1.31,0,0,0-.43.38,1.64,1.64,0,0,0-.24.6l-.21,1.09,4.77,1,.22-1.08a1.43,1.43,0,0,0,0-.65,1.11,1.11,0,0,0-.25-.51,1.26,1.26,0,0,0-.63-.39A9.94,9.94,0,0,0,36.06,77.63Zm4.14-10.2a4.73,4.73,0,0,1,1.18.64,2.36,2.36,0,0,1,.67.86,2.63,2.63,0,0,1,.26,1.16,3.52,3.52,0,0,1-.24,1.12,2.76,2.76,0,0,1-1.5,1.57,2,2,0,0,1-.72.18,2.5,2.5,0,0,1-.72,0,4.62,4.62,0,0,1-.76-.22c-.27-.09-.55-.2-.85-.32L36.69,72a5.88,5.88,0,0,1-.71-.36,2.76,2.76,0,0,1-.56-.45,2.19,2.19,0,0,1-.4-.63,2.81,2.81,0,0,1-.24-1A2.72,2.72,0,0,1,35,68.42a3.13,3.13,0,0,1,.6-1,2.72,2.72,0,0,1,.8-.58,2.51,2.51,0,0,1,.91-.24,3.36,3.36,0,0,1,.95.08L37.72,68a1.52,1.52,0,0,0-.92.12,1.34,1.34,0,0,0-.59.73,1.22,1.22,0,0,0-.1.55,1.06,1.06,0,0,0,.13.47.85.85,0,0,0,.17.25,1.39,1.39,0,0,0,.31.24,3.09,3.09,0,0,0,.52.27l.82.34c.33.13.61.24.84.31a4.11,4.11,0,0,0,.56.17,1.43,1.43,0,0,0,.39,0,.94.94,0,0,0,.3-.07,1.06,1.06,0,0,0,.41-.26,1.27,1.27,0,0,0,.3-.46,1.47,1.47,0,0,0,.11-.6,1.14,1.14,0,0,0-.12-.52,1.35,1.35,0,0,0-.33-.41,1.58,1.58,0,0,0-.48-.27l-.26-.11-.5,1.28-1.14-.44,1-2.63Zm7-6.24-2.55,4.22-6.39-3.86,2.54-4.22L41.9,58l-1.78,3,1.5.91,1.52-2.53,1.11.67-1.52,2.53,1.56.94,1.78-3ZM59.78,48.26l-1.17.87-4.47-6,1.17-.87Zm8.13-4.91L66.77,44,62,41.36l2.2,4-1.29.7-3.57-6.57,1.15-.62,4.79,2.61-2.19-4,1.28-.69Zm6.14-8.88-1.85.63,2,5.85-1.39.46-2-5.85L69,36.19,68.55,35l5.08-1.72Zm10,4.28-4.86.8L78,32.18l4.86-.81.21,1.28-3.41.57L80,35l2.91-.48.22,1.28-2.92.49.3,1.79,3.42-.57Zm8.73-3.37a4.75,4.75,0,0,1-.14,1.34,2.54,2.54,0,0,1-.54.94,2.64,2.64,0,0,1-1,.68,3.71,3.71,0,0,1-1.12.2,2.87,2.87,0,0,1-1.12-.2,2.54,2.54,0,0,1-.9-.6,2,2,0,0,1-.45-.6,2.47,2.47,0,0,1-.22-.68,4.8,4.8,0,0,1-.08-.79c0-.28,0-.58,0-.9v-.9a6.45,6.45,0,0,1,.07-.79,2.73,2.73,0,0,1,.2-.69,2.43,2.43,0,0,1,.43-.61,3,3,0,0,1,.89-.62A2.8,2.8,0,0,1,90,30.94a2.91,2.91,0,0,1,1.14.18,2.77,2.77,0,0,1,.85.52,2.63,2.63,0,0,1,.56.76,3.06,3.06,0,0,1,.29.9H91.32a1.47,1.47,0,0,0-.46-.8,1.28,1.28,0,0,0-.9-.27,1.19,1.19,0,0,0-.54.12,1.24,1.24,0,0,0-.39.29,1.17,1.17,0,0,0-.17.26,1.92,1.92,0,0,0-.1.37,3.17,3.17,0,0,0-.05.59c0,.23,0,.53,0,.88s0,.66,0,.9a4,4,0,0,0,.06.58,1.23,1.23,0,0,0,.12.37,1.17,1.17,0,0,0,.17.26,1.15,1.15,0,0,0,.4.28,1.33,1.33,0,0,0,.54.1,1.78,1.78,0,0,0,.6-.12,1.28,1.28,0,0,0,.44-.32,1.38,1.38,0,0,0,.25-.46,1.81,1.81,0,0,0,.07-.54v-.28l-1.38,0V34.32l2.82,0Zm9.12,4.38-1.67-.29-.93-3.18-1-.18-.51,2.94-1.44-.25,1.27-7.37,2.89.5a2.72,2.72,0,0,1,1,.35,2.5,2.5,0,0,1,.67.62,2.11,2.11,0,0,1,.34.8,2.27,2.27,0,0,1,0,.9,2,2,0,0,1-.23.68,2,2,0,0,1-.39.51,2.1,2.1,0,0,1-.5.34,2.26,2.26,0,0,1-.56.17Zm-.86-5.41a.92.92,0,0,0-.16-.75,1,1,0,0,0-.71-.4L98.85,33l-.34,1.95,1.36.23a1,1,0,0,0,.81-.14A.88.88,0,0,0,101.08,34.35Zm5.47,6.84-1.39-.45,2.3-7.12,1.39.45ZM117.21,39l-1.76-.84-2.65,5.58-1.32-.63,2.65-5.57-1.76-.84.56-1.18,4.85,2.31Zm9,4.27-4.36,2.33-1.75,2.51-1.19-.83,1.75-2.51.68-4.9,1.3.9L122,44.07l2.85-1.68Zm8.75,21.32-2.64-4.16,6.31-4,2.64,4.16-1.1.7-1.86-2.93-1.48.94,1.59,2.49-1.11.7L135.71,60l-1.53,1L136,63.92Zm3.76,8.17-.65-1.53,1.83-2.36-3-.31-.65-1.53,4.44.64,2.5-3.43.65,1.53-1.71,2.14,2.73.27.65,1.51-4.21-.57Zm4.27,7a2.9,2.9,0,0,1-1.08-.08,2.79,2.79,0,0,1-.87-.41,2.49,2.49,0,0,1-.63-.7,3.36,3.36,0,0,1-.38-.91,2.71,2.71,0,0,1,.32-2.15,1.92,1.92,0,0,1,.48-.57,2.51,2.51,0,0,1,.61-.38,6.56,6.56,0,0,1,.75-.26l.87-.22.88-.21a6.07,6.07,0,0,1,.79-.12,2.41,2.41,0,0,1,.71.05,2,2,0,0,1,.7.27,2.77,2.77,0,0,1,1.27,1.76,3.09,3.09,0,0,1,.1,1,2.31,2.31,0,0,1-.24.9,2.34,2.34,0,0,1-.57.77,3,3,0,0,1-.92.58l-.35-1.44a1.61,1.61,0,0,0,.63-.58,1.1,1.1,0,0,0,.09-.89,1.22,1.22,0,0,0-.23-.5,1.11,1.11,0,0,0-.37-.32,1,1,0,0,0-.29-.11,1.56,1.56,0,0,0-.39,0,5.62,5.62,0,0,0-.58.08l-.88.2-.86.23c-.23.07-.41.14-.56.2a1.25,1.25,0,0,0-.33.2,1.21,1.21,0,0,0-.21.24,1.12,1.12,0,0,0-.18.45,1.3,1.3,0,0,0,0,.55,1.14,1.14,0,0,0,.5.75,1.78,1.78,0,0,0,.84.22Zm-1.37,8.59-.4-4.91,7.45-.61.4,4.91-1.3.11-.28-3.46-1.75.14.24,3-1.29.1-.24-2.94-1.81.15.27,3.45Zm-.38,8.12.35-4.84,7.46.54-.11,1.46-6.16-.45-.24,3.38Zm-1.6,7.79,1.09-4.72L148,101.3l-.33,1.42-6-1.39-.77,3.3Zm-2.82,7.52,1.85-4.56,6.93,2.81-1.86,4.56-1.2-.49,1.3-3.21-1.62-.66L141.09,113l-1.21-.49,1.11-2.74-1.68-.68L138,112.34Zm-4.48,7.77.69-1.11,5.45-.09L134.57,116l.77-1.24,6.35,3.95-.69,1.1-5.45.1,3.89,2.42-.77,1.24Zm-3.95,8.31a3.12,3.12,0,0,1-.54-.94,2.62,2.62,0,0,1-.15-.95,2.29,2.29,0,0,1,.22-.91,3.11,3.11,0,0,1,.54-.83,2.73,2.73,0,0,1,1.94-1,2,2,0,0,1,.74.08,2.41,2.41,0,0,1,.66.29,6.11,6.11,0,0,1,.64.47l.68.59.67.61a5.81,5.81,0,0,1,.54.58,3.2,3.2,0,0,1,.37.61,2.37,2.37,0,0,1,.16.73,3,3,0,0,1-.14,1.07,2.88,2.88,0,0,1-.59,1,3,3,0,0,1-.76.63,2.34,2.34,0,0,1-.88.32,2.55,2.55,0,0,1-.95,0,3,3,0,0,1-1-.43l1-1.1a1.61,1.61,0,0,0,.84.19,1.09,1.09,0,0,0,.79-.43,1.22,1.22,0,0,0,.28-.47,1.16,1.16,0,0,0,.05-.48,1.08,1.08,0,0,0-.07-.31,1.53,1.53,0,0,0-.2-.33,3.71,3.71,0,0,0-.4-.43c-.17-.17-.39-.37-.66-.61s-.49-.43-.68-.58a3.54,3.54,0,0,0-.48-.35,1.49,1.49,0,0,0-.35-.16,1.65,1.65,0,0,0-.31,0,1.12,1.12,0,0,0-.47.11,1.24,1.24,0,0,0-.44.33,1.13,1.13,0,0,0-.34.84,1.61,1.61,0,0,0,.3.81Zm-7.84,3.73,3.82-3.11,4.72,5.79-3.82,3.11-.82-1,2.69-2.18L126,132.9l-2.29,1.86-.82-1,2.29-1.86L124,130.48l-2.69,2.19Zm-43,16.16-1.33-.31,1.35-5.85-1.78,1,.32-1.44,1.79-.94,1.33.3Zm10.64-3.93a2.84,2.84,0,0,1-.25,1q-.22.47-.51,1l-1.82,3.1-1.48-.1,1.78-3a1.4,1.4,0,0,1-.28.06h-.28a1.86,1.86,0,0,1-.72-.21,2,2,0,0,1-.6-.48,2,2,0,0,1-.39-.73,2.36,2.36,0,0,1-.09-.94,2.27,2.27,0,0,1,.25-1,2.12,2.12,0,0,1,.54-.7,2.18,2.18,0,0,1,.77-.4,2.83,2.83,0,0,1,.93-.09,2.7,2.7,0,0,1,.91.22,2.08,2.08,0,0,1,.7.5,2.11,2.11,0,0,1,.44.76A2.47,2.47,0,0,1,88.16,143.89Zm-1.36-.09a1.1,1.1,0,0,0-.21-.83.92.92,0,0,0-.67-.33.89.89,0,0,0-.71.23,1.05,1.05,0,0,0-.33.78,1.14,1.14,0,0,0,.2.82.87.87,0,0,0,.68.34.94.94,0,0,0,.71-.23A1.11,1.11,0,0,0,86.8,143.8Zm10.52,2.71a2.42,2.42,0,0,1-.1,1,1.92,1.92,0,0,1-.45.74,2.39,2.39,0,0,1-.72.48,3.29,3.29,0,0,1-.9.21,3,3,0,0,1-.9-.05,2.21,2.21,0,0,1-.79-.33,2.07,2.07,0,0,1-.58-.63,2.36,2.36,0,0,1-.3-1l1.36-.12a1.15,1.15,0,0,0,.14.43.81.81,0,0,0,.24.28,1,1,0,0,0,.34.15,1.2,1.2,0,0,0,.38,0,1,1,0,0,0,.7-.33,1,1,0,0,0,.22-.8,1,1,0,0,0-1.14-.93h-.2l-.1-1.18.2,0a.86.86,0,0,0,.7-.33,1,1,0,0,0,.16-.68.88.88,0,0,0-.33-.69,1,1,0,0,0-.66-.18.89.89,0,0,0-.62.29.91.91,0,0,0-.22.69l-1.36.11a2.26,2.26,0,0,1,.11-.91,2.06,2.06,0,0,1,.43-.7,2.41,2.41,0,0,1,.68-.49,2.78,2.78,0,0,1,.88-.22,2.55,2.55,0,0,1,.92.08,2.17,2.17,0,0,1,.76.38,2,2,0,0,1,.53.63,2.33,2.33,0,0,1,.24.85,1.75,1.75,0,0,1-.16,1,1.68,1.68,0,0,1-.57.61,2,2,0,0,1,.74.56A1.79,1.79,0,0,1,97.32,146.51Zm8.22.54-1.33.33-1.45-5.83-1.15,1.65-.36-1.42,1.16-1.66,1.32-.33Zm22.4-93.74.2-3.59,3.59.2-.2,3.59-3.59-.2ZM112.46,142.2l1-3.47,3.46,1-1,3.47-3.46-1ZM51.37,53.32l-3.6.07-.07-3.6,3.6-.07.07,3.6ZM68.28,142.1l-3.42,1.13-1.13-3.42,3.42-1.13,1.13,3.42ZM84.68,53v1c0,.3,0,1.11,0,2v1.64a1.15,1.15,0,0,1,0,.42.36.36,0,0,1-.2.21,5.73,5.73,0,0,1-1.68.52,11.94,11.94,0,0,1-2,.17,10.17,10.17,0,0,1-2.69-.35,6.61,6.61,0,0,1-2.23-1.08,5.25,5.25,0,0,1-1.54-1.88A6.16,6.16,0,0,1,73.75,53a5.89,5.89,0,0,1,.75-3,5.57,5.57,0,0,1,1.9-2,6.4,6.4,0,0,1,2-.79,11.17,11.17,0,0,1,2.89-.17l.81.06.69.09a2.79,2.79,0,0,1,.4.07l.62.1.54.06c.28,0,.31.2.31.28s0,.09,0,.17,0,.5-.06.83,0,.82,0,1.45c0,.35-.14.42-.26.42s-.21-.05-.25-.28a3,3,0,0,0-.15-.65,1.41,1.41,0,0,0-.33-.54,3.69,3.69,0,0,0-1.26-.78,6.17,6.17,0,0,0-3.52-.19,3.44,3.44,0,0,0-1.39.74,3.5,3.5,0,0,0-1,1.4A5.76,5.76,0,0,0,76,52.48a6.49,6.49,0,0,0,.37,2.19,4.9,4.9,0,0,0,1,1.76A4.59,4.59,0,0,0,79,57.59a5.1,5.1,0,0,0,2.09.41q.41,0,.72,0a1.82,1.82,0,0,0,.51-.12.47.47,0,0,0,.23-.47V56c0-.88,0-1.68,0-2a1.06,1.06,0,0,0-.13-.53.67.67,0,0,0-.43-.22,2.52,2.52,0,0,0-.57,0c-.29,0-.32-.15-.32-.22s.07-.25.42-.25l1.36,0,.81,0,.77,0h0A.19.19,0,0,1,84.68,53Zm8.21,5.56c0,.11-.07.25-.38.25l-1.65,0-.69,0-.7,0-1.18,0c-.33,0-.4-.14-.4-.25s0-.22.34-.22a2.29,2.29,0,0,0,.51-.06c.2,0,.31-.26.36-.66s.05-.67.06-1.15,0-1.18,0-2.1V49.38c0-.33,0-.61,0-.86,0-.45-.17-.69-.43-.75a1.88,1.88,0,0,0-.51-.06c-.31,0-.34-.17-.34-.25s.33-.22.46-.22l1.09,0,.85,0,.73,0,1.1,0c.1,0,.41,0,.41.22s0,.25-.34.25a2.58,2.58,0,0,0-.43,0,.46.46,0,0,0-.34.2,1.39,1.39,0,0,0-.13.56c0,.25,0,.53,0,.86v4.94c0,.92,0,1.63,0,2.11a11.24,11.24,0,0,0,.05,1.15,1.08,1.08,0,0,0,.15.47.48.48,0,0,0,.36.18l.37,0,.38,0C92.84,58.29,92.89,58.43,92.89,58.51Zm13.34-.24a3.86,3.86,0,0,1-.61-.05,1.31,1.31,0,0,1-.58-.38,4.15,4.15,0,0,1-.66-1.19l-3.27-8.11c-.23-.58-.38-.95-.45-1.1-.16-.37-.3-.54-.46-.54a.34.34,0,0,0-.28.17,3.14,3.14,0,0,0-.24.49L95.93,57a3.59,3.59,0,0,1-.51.94,1,1,0,0,1-.68.34l-.45,0c-.26,0-.28.17-.28.22s0,.25.38.25h.81l.66,0h.3l.77,0h.81c.31,0,.36-.15.36-.25s0-.22-.33-.22h-.22a.65.65,0,0,1-.4-.09.33.33,0,0,1-.1-.27,2.38,2.38,0,0,1,.22-.88l.85-2.19,3.39,0L102.7,58l.14.41c0,.15.12.29.29.29h.51l.66,0,1.43,0a3.56,3.56,0,0,0,.58,0c.19,0,.21-.17.21-.22S106.5,58.27,106.23,58.27Zm-5.06-4.38-2.72,0,1.36-3.65ZM73,88.21h0Zm7.5-3.11,45-21.17-.07-.32h-71l-.06.33a89.12,89.12,0,0,0,.83,29.63c3,14.52,11.38,33.71,34.73,42.62l.14.05.15-.05c23.67-9.25,32-28.42,34.85-42.87A86.76,86.76,0,0,0,125.49,63.93ZM71.25,80.83c0-.13.22-.14.37-.24s0-.19.09-.28a.81.81,0,0,0,.1-.25l.45-.22a15.38,15.38,0,0,0-1.14,2c0-.16,0-.36-.11-.4s-.25,0-.4,0-.06-.11.09-.17a3.62,3.62,0,0,1,.48-.12C71.26,81.11,71.28,81,71.25,80.83ZM75,78.12c-.4.15-.72.28-1.1.44a10.18,10.18,0,0,1,.94-.92,1,1,0,0,0-.07.15C74.81,77.9,75,78,75,78.12Zm2.42,2.57s0,0,0,0,0,.35.11.66c0,.14.13.31.14.42s.17.22.21.21l.15-.07c.19-.08.24.09.44.07a.66.66,0,0,1,.26.09c.13.07.09.28,0,.37s-.14.18-.2.19c-.46.08-.93-.19-.78.68.06.34.24.31.44.18a1.38,1.38,0,0,1,.93-.2s0,.13,0,.28c-1.49.43-2.23.67-3.85,1.21a24.38,24.38,0,0,1,.49-3.58Zm-1.48-.1c.08-.3.16-.58.25-.86a.66.66,0,0,1,.37.12c.07.11.34.38.48.31s0,0,.08,0Zm6.59,5.46c0-.25.44-1.29.18-1.5s.44-.77.61-.91c.08,0,0,.15.23.18s.2-.11.24-.22,0-.08,0-.1,0-.07,0-.12a1.23,1.23,0,0,1,.1-.42h0c.88-.21,1.75-.4,2.61-.58.33,1.25.68,2.64,1,4.15-2.8.59-3.5.77-5.9,1.38l-.09-.61.17-.05c.33-.06.4.48.72-.09C82.62,86.91,82.47,86.39,82.52,86.05Zm19.31-7a1,1,0,0,1,0-.17c.26.3.52.6.77.91a.5.5,0,0,0-.09.21s0,0,0,0h-.77A2,2,0,0,0,101.83,79.1Zm.26-.71c.22-.31.56-.5.79-.19s-.1.6-.09.92c0,0,0,.06,0,0Zm.82,2.28c0,.11-.12.18,0,.29a1.46,1.46,0,0,0,.33.29h.12c.23,0,0,.2.09.3a.06.06,0,0,0,.07,0,2.43,2.43,0,0,1,.35,0l.31.47c-.28.09-.54.2-.45.37.31.59.7.14.87.37-.06-.08.23.29.17.48s-.42,0-.65-.07-.07-.16-.19-.08-.12.24-.12.46c0,1,.32.34.35.65,0,.15-.18.34-.25.47-.63,0-1.28,0-1.93,0,0-.17.05-.32.36-.27s.19-.28.14-.44a.68.68,0,0,0,0-.13c-.06-.12-.33-.08-.18-.26s-.16-.47-.21-.61.62-.27.51-.36,0-.43-.22-.63c-.07-.07-.77-.41-.77-.46s-.12-.92-.19-.84l0,0Zm5.3,10.64c.14.52.28,1,.4,1.57a6.34,6.34,0,0,0-.42-.49,1.8,1.8,0,0,1-.37-.54c-.06-.14.25.13.31,0S108,91.36,108.21,91.31Zm-.3,2.22c.3.41.48.51.67.19a.5.5,0,0,1,.19-.11c.06.27.11.55.17.82h-3.2a.68.68,0,0,1-.06-.36s.11-.07.13-.13a2.86,2.86,0,0,0,.24-.56c0-.17-.29-.58-.27-.73s.15,0,.32,0,.09-.23.09-.23-.59-.18-.93-.32c-.08,0,0-.16-.12-.19-.36-.12-.72-.15-.84-.29a1.67,1.67,0,0,0-.67-.57.35.35,0,0,1-.19-.19l1,0a.35.35,0,0,0,.18.18c.41.12.65.24,1,.37,0,0,.65,0,.65,0s.06.65.23.69.32.33.49.54.25.06.38.19A4.38,4.38,0,0,1,107.91,93.53Zm1.44-.17c-.11-.49-.23-1-.36-1.48.15,0,.32,0,.41.22s-.09.31,0,.37l.35.2c.12.07,0,.24.13.3a6.36,6.36,0,0,1,.85.25c.4.29.47-.4.57-.46.27-.15.47.16.77.16s.47-.45.71-.65c.09-.07.17-.11.24-.09s-.1.22-.07.4.25.42.29.68a2.32,2.32,0,0,1-.12,1.08l0,.09h-3.54C109.5,94.07,109.42,93.71,109.35,93.36Zm.41-5.24c.1.07.26,0,.42.13s.2-.26.25-.22-.14.38-.11.51.18,0,.29,0,.11.39.22.34.68-.53.91-.63l.16,0q.31.75.6,1.53c-.21,0-.6.12-.81.07-.54-.11-.78.23-1.09.48-.49,0-1-.08-1.53-.11a.83.83,0,0,1,.05-.18c.2-.53,0-1.14.23-1.71.05-.14.33-.41.54-.37S109.68,88.06,109.76,88.12Zm3.36,1.69c-.17-.47-.34-.93-.53-1.39a4.12,4.12,0,0,1,1.33.72C114.24,89.5,113.64,89.75,113.12,89.81Zm-9.59,3.64c-.13-.57-.26-1.14-.4-1.69.3.32.55.67,1,.71.16,0,.3,0,.44.06s.3.21.46.28a1.21,1.21,0,0,1,.46.52c0,.06.08.46-.09.55a1.54,1.54,0,0,1-.68.1.31.31,0,0,0-.29.33.41.41,0,0,1,0,.12h-.7C103.67,94.1,103.6,93.77,103.53,93.45Zm2.4-12.36a.58.58,0,0,0-.33.34c-.07.27-.7.08-.83.32,0,0,0,0,0,0l-.33-.5a1.3,1.3,0,0,1,1.48-.32S106,81.07,105.93,81.09Zm-2.88,4.17-.18.16c-.35.35-.85.21-1.15.38,0,0,0,0,0,0,.15-.4-.39-.28-.39-.39a.08.08,0,0,1,0,0ZM101.6,92.2c.29-.26.43-.82.76-.89.19.73.37,1.48.53,2.25.07.29.13.58.19.87H99.85a.27.27,0,0,1,.12-.18c.21-.17.16-.4.32-.64s.47-.38.46-.51-.18-.31-.19-.5.15-.28.25-.34S101.45,92.34,101.6,92.2ZM90.09,94.43c-.09-.43-.19-.86-.28-1.28l-.12-.55c2.93-.55,3.71-.67,6.13-1,.16.64.32,1.32.48,2l-.06.07c-.12.14,0,.3.18.46,0,0,0,0,0,0s0,.16,0,.23ZM69.58,92.71c.84-.38,2-.84,2.91-1.2,0,.09-.22.28-.2.37a2.36,2.36,0,0,1,.11.58c0,.54-.84.56-.39.94s.11.65-.24,1H69.63C69.6,93.85,69.58,93.28,69.58,92.71Zm.34-1.29s.08.06.09.08,0,.14.11.14.21-1,.27-.91a.72.72,0,0,1,.17.3c0,.1.47,0,.53-.29,0-.08.13-.19,0-.3s-.07,0-.26.22-.16-.13-.27-.19-.14-.18-.21-.22-.15,0-.2,0a.3.3,0,0,1,0-.4.16.16,0,0,0,0-.1.24.24,0,0,0,0-.12c0-.11-.18-.21-.15-.27s.2.17.33,0,1-.92.72-1c-.53-.23-.06-.93-.07-1.36.52-.22.94-.39,1.37-.55,0,.17,0,.36,0,.41s.39-.46.36-.48a1.67,1.67,0,0,1,.47.76c0,.17-.14.17-.14.29,0,0,.07.1,0,.26a2,2,0,0,1-.26.53c-.11.18,0,.19.16.27s.11.15.18.24,0,0,0,0c-.22.09-1.09.75-1.18.8s-.19,1.06.21.88a1,1,0,0,0,.49-.63s0,0,.05,0,.19-.14.29-.15.23.1.35.12.15.22.21.32a.54.54,0,0,0,.34.19l-.43.15-.19.07c-.11,0,0-.19-.31-.15-.1,0-.1.22-.17.33s-2.57,1-3.41,1.38c0-.45,0-.89,0-1.33h0c.2-.11.29.09.24.3A.53.53,0,0,0,69.92,91.42Zm4.59-.28c0-.08-.13-.18-.28-.28.17-.06.33-.13.5-.18l.09,1,0,0C74.68,91.59,74.5,91.08,74.51,91.14ZM74.67,85l-.33.12c0-.23.28-.38,0-.48a.09.09,0,0,0-.07,0c0,.07-.07.18-.13.16s-.17-.2-.32-.28-.34-.07-.43-.11-.11-.22-.24-.22-.32.24-.37.21-.14-.35-.35-.48-.29.32-.52.22c0,0-.35,0-.38,0s.26-.22.24-.27-.16-.39-.3-.38a1,1,0,0,0-.54.24c.08-.22.17-.47.28-.75,1-.46,2.17-.92,3.38-1.36l.55-.2A25,25,0,0,0,74.67,85ZM72.14,86,71,86.41c-.09-.17-.15-.32.1-.26.41.12.25-.46.51-.43s.39.19.48.18S72.12,85.92,72.14,86Zm14.08-8.78s.1-.24.1-.22.79.07.34-.31c0,0-.21,0-.22-.12s.28-.09.3-.19-.24-.37-.29-.47a1.2,1.2,0,0,0-.43-.25c1-.18,1.92-.34,2.85-.46a14,14,0,0,1,1.52,2c-1.4.19-2.84.44-4.28.72l-.13,0h0l0-.1H86c.11,0,.54,0,.6-.15S86.38,77.34,86.22,77.17Zm13.38.65s0,.06,0,.07l-.12,0s-.07,0,0,.11c.22.48-.11.18-.23.81s.31.28-.22.81a1.75,1.75,0,0,0-.27.5H98.5a23.33,23.33,0,0,0-2.18-3c1.5-.07,2.05-.07,3.13-.06l.07,0c.21.24-.06.31-.11.47A1.16,1.16,0,0,0,99.6,77.82ZM95.72,88.28c0-.06-.29-.79,0-.64l.37.33a.24.24,0,0,1,0,.39c-.07.06-.16.86.21.55a1.94,1.94,0,0,1,.77-.18s-.07.12-.18.22-.33,0-.43.13-.23.67-.13.74c.3.21,1.51-1.56,2.26-.93.07.06,0,.14-.07.22s0,.14-.16.22-.31.32-.44.35-.16-.13-.19-.14c-.23-.06,0,.42,0,.44.08.25-.59.42-.89.5,0,0-.09.08-.08.1a.62.62,0,0,0,.16.2l-.65.08c-.19-.72-.38-1.43-.57-2.12A.39.39,0,0,0,95.72,88.28Zm-1.18-.46a.28.28,0,0,1-.23.15.19.19,0,0,0-.1.06.77.77,0,0,0,.05.47c0,.18.25,0,.3.12.15.24-.38.88.08.91a1.38,1.38,0,0,0,.58-.25c.15.55.3,1.1.44,1.67-2,.28-4.09.62-6.12,1-.44-2-.82-3.57-1.16-5,1.94-.38,3.91-.71,5.86-1,.14.41.27.84.4,1.27a.31.31,0,0,0-.16.11S94.63,87.64,94.54,87.82Zm.35-1.9.23,0a.56.56,0,0,0,.09.3.55.55,0,0,0,.21.12.29.29,0,0,1,.08.13c0,.13.16.34.2.47s0,.14,0,.15a1,1,0,0,1-.42.13C95.16,86.75,95,86.33,94.89,85.92Zm3.17,5.37a.25.25,0,0,0,.1.14c.14.09.47,0,.5.2a4.83,4.83,0,0,0,.21.78c0,.12.17.17.12.26a1.11,1.11,0,0,1-.36.31c-.06,0-.16-.1-.37,0s-.61,0-.71.12a1.85,1.85,0,0,1-.65.22c-.12-.56-.28-1.2-.43-1.79Zm1.2-3.2c-.15,0-.69.53-.82.22s.11-.52,0-.72-.24-.11-.36-.06-.09,0-.11-.1c-.2-.5-1.32-.9-1.64-1.18-.16-.14-.08-.32,0-.49,1.44-.17,2.23-.24,3.63-.34.12.19.27.38.36.51.43.59.39.58-.17.87-.21.12-.78.45-.77.76S99.62,88,99.26,88.09Zm.44-3.27c-1.8.14-2.63.22-4.15.41a.33.33,0,0,0,0-.44c-.07-.07-.45.18-.44.32v.17l-.37,0c-.49-1.45-1-2.82-1.54-4.06,1.72-.22,3.39-.39,5-.49l.16.28c-.33.39-.09.36-.16.63s-.4.31-.44.59c0,.13.16.65.15.8a.07.07,0,0,0,0,.06,4.33,4.33,0,0,1,.47.33l-.17.12a.11.11,0,0,0,0,.08,1.77,1.77,0,0,0,.31.48.64.64,0,0,0,.37.17.21.21,0,0,0,.1,0,.23.23,0,0,1,.12,0,.37.37,0,0,0,.26-.08,2.41,2.41,0,0,0,.4-.34l.23.53A.52.52,0,0,0,99.7,84.82Zm-6.78-4.11c-.52-1.15-1-2.19-1.57-3.09,1.49-.19,2.92-.33,4.24-.41a21.78,21.78,0,0,1,2.23,3C95.64,80.39,95,80.47,92.92,80.71Zm2.92-4.07a15.44,15.44,0,0,0-2.17-1.94c.94,0,1.84,0,2.68,0a15.81,15.81,0,0,1,3,1.88C98.23,76.54,97.06,76.57,95.84,76.64Zm-.72,0c-1.34.09-2.71.23-4.09.41a15.42,15.42,0,0,0-1.49-2c1.46-.18,1.92-.21,3.27-.31A13.07,13.07,0,0,1,95.12,76.69ZM87,79.16s.09-.29,0-.35a1.45,1.45,0,0,1-.35-.43c1.37-.26,2.74-.49,4.09-.68a31.84,31.84,0,0,1,1.57,3.1c-1.75.24-3.52.54-5.24.88-.15-.55-.3-1.08-.44-1.6C86.86,79.79,87.15,79.47,87,79.16Zm2.84,2.62h0c0,.06-.51.36-.6.33-.49-.17-.53.54-.74.66-.06,0-.16-.36-.35-.36,0,0-.26-.06-.35.1a.94.94,0,0,0-.08.32c0,.11,0,.2.1.21A.45.45,0,0,0,88,83c.17-.11-.22.34-.18.36s.54,0,.72.08c-.08.11-.26.18-.29.32s.89-.27.85-.07c-.09.42.57-.16.6-.18.39-.34.81-.86,1.19-1.18.14-.13-.31-.47-.68-.64l2.3-.34c.53,1.24,1,2.6,1.53,4-1.9.27-3.85.59-5.81,1-.36-1.45-.71-2.84-1-4.14C88.34,82,89.1,81.89,89.8,81.78Zm-.91,10.33c-2.08.42-4.17.91-6.21,1.45-.35-1.79-.65-3.49-.89-5,2-.52,4-1,5.94-1.39C88.11,88.68,88.5,90.35,88.89,92.11Zm-6,2.32a2,2,0,0,1,0-.24c2-.54,4.13-1,6.22-1.46.13.56.25,1.13.38,1.7Zm18.32-9.71-.36,0c-.18-.43-.37-.86-.56-1.27,0,0,0,0,0,0a4.41,4.41,0,0,0,.76.8A.45.45,0,0,1,101.18,84.72Zm-.49-8.86s-.45-.14-.56,0,.06.07.09.1,0,0,0,.06l-.11,0a0,0,0,0,0,0,.07l.1.11c-.16.13-.18-.09-.36.09a17.07,17.07,0,0,0-2.3-1.56c.66.05,1.27.12,1.82.21.38.16.75.33,1.12.51C100.62,75.63,100.77,75.81,100.69,75.86Zm-4.17-1.7c-.56-.26-1.48-.49-2.06-.7l1.75.32a12.18,12.18,0,0,1,1.49.44S96.93,74.17,96.52,74.16Zm-1.37,0h0c-.74,0-1.27,0-2.19.07a9.32,9.32,0,0,0-1.58-.79h1A13.25,13.25,0,0,1,95.15,74.16ZM92,74.29q-1.41.1-2.94.3A8.66,8.66,0,0,0,88,73.66c.67-.07,1.32-.13,1.94-.17A8.11,8.11,0,0,1,92,74.29Zm-3.62.4c-.65.09-1.31.19-2,.31,0-.15-.24,0-.29-.16s-.09-.08-.19-.09-.43,0-.56,0-.09-.08-.06-.15.44,0,.49-.42c0-.07,0-.16,0-.24l1.2-.19A4.91,4.91,0,0,1,88.42,74.69Zm-2.35,5.86c.11.4.22.82.34,1.25-.69.14-1.37.29-2,.45l.13-.2c.2-.31.49-.23.68-.49A7.22,7.22,0,0,1,86.07,80.55ZM82,93.73l-2.44.7h-.22a1.81,1.81,0,0,0,.18-.23,1.26,1.26,0,0,0,0-.3c0-.19,0-.42-.21-.36a2.17,2.17,0,0,1-.49-.05.11.11,0,0,1,0-.12c.06-.11.14-.27.06-.33-.24-.13-.72,0-1-.05a7.39,7.39,0,0,1-.71-.37s0-.08,0-.09l.18-.11c.05,0-.09-.24-.17-.3s-.12,0-.15-.08,0-.08,0-.17l-.18-.26c-.15-.29-.15,0-.29-.1s.3-.38-.13-.42c-.11,0-.13-.58-.31-.52s-.38,1.5-.71,1.24q-.08-.69-.12-1.35c2.68-.9,3.44-1.11,5.77-1.77C81.4,90.31,81.7,92,82,93.73Zm-6.4-4c-.08-.19-.22-.42-.35-.39,0-.15,0-.29,0-.43.2,0,.35.06.52,0s-.23-.28-.24-.25a.5.5,0,0,1,.11-.17.33.33,0,0,0,0-.14c0-.16-.07-.51-.24-.29,0,0-.12,0-.22,0s0-.38,0-.57a1.07,1.07,0,0,0,.56.21c.07,0,.26,0,.26,0,.42-.07,0-.36,0-.47s.16,0,.18-.1,0-.4.25-.57,0-.63-.22-.56a.62.62,0,0,0-.35.3c-.07.13-.31.08-.3,0s-.12-.4-.31-.38c0,0,0,0,0,0,0-.17,0-.34,0-.51,1.81-.6,2.66-.87,3.83-1.21a.58.58,0,0,0,0,.15.84.84,0,0,0-.44,1c0,.15.22.09.31.23s0,.43.06.52.32.4.34.41c.19.22.32.62.49.64a.53.53,0,0,1,.33.15,3.61,3.61,0,0,0,.35.33c.17.22.31.21.45.12,0,.11,0,.22,0,.33C78.42,88.81,77.66,89.05,75.64,89.72Zm-.37-8.9-.22.07-.6.22c-1.08.4-2,.78-2.94,1.17a15.23,15.23,0,0,1,1.59-2.75c.14.13.17.39.43.38s.17-.29.33-.37.21,0,.38-.06.13.09-.06.26-.51.59-.63.59c-.52,0,.88,1,.74,0a1,1,0,0,1,.5,0c.2,0,.56-.63.8-.63h0C75.47,80.05,75.37,80.43,75.27,80.82ZM72.88,79l-1,.48a.63.63,0,0,1,.07-.19q.27-.24.54-.45h0l.05,0,0,0c.41-.31.83-.61,1.26-.88l.13-.09A12.34,12.34,0,0,0,72.88,79Zm-2.3,3.21c0,.08.2.12.31.13,0,.09-.08.17-.11.26l-.4.18-.73.35-1,.49h-.21s.1-.4.21-.4.1.05.27,0,.24-.21.37-.32.28-.12.28-.31,0-.35.09-.36.08,0,.18.11,0,.21.33.08S70.52,82.09,70.58,82.21Zm-.1,1.12c-.12.34-.25.7-.36,1.06a.74.74,0,0,1-.47,0s-.08.24-.43.42L69,84.9a.66.66,0,0,0-.11.29c0,.1-.21.27-.11.45s-.08.62,0,.72-.2.19,0,.3-.12.38-.12.43a1,1,0,0,1-.43.21,2.42,2.42,0,0,1-.61-.07c-.1,0,.2-.29.11-.41s-.06-.07,0-.17-.15-.25.14-.3.42-.73.32-.73-.3,0-.06-.25-.14-.16-.19-.14a3.31,3.31,0,0,0-.63.23l.3-.62C68.44,84.34,69.41,83.83,70.48,83.33Zm-1.77,8.52a1.07,1.07,0,0,1,.28-.58l0,1-.34.15A1.52,1.52,0,0,0,68.71,91.85Zm-1.49-7.41c-.74.47-1.08.68-1.42.93.39-.58.81-1.15,1.25-1.7a3.35,3.35,0,0,0,.42.32Zm-.7,5.94c0,.11-.07.22-.24.22s-.15.16-.21.21a.5.5,0,0,1-.47-.07l-.06,0c.08-.37.16-.73.25-1.09.22-.13.44-.26.67-.38a1.08,1.08,0,0,1-.08.42s0,.06,0,.07a.13.13,0,0,0,.07.06.25.25,0,0,0,.21-.08s0,0,0,0a1,1,0,0,1,.18.26c0,.05-.17,0-.24,0a.11.11,0,0,0-.12.08A.79.79,0,0,0,66.52,90.38Zm.26-2-.78.42a23.85,23.85,0,0,1,.92-2.58,1.29,1.29,0,0,1,.23.93c-.05.25-.27.39-.34.63S67,88.06,66.78,88.4Zm0-3a23.93,23.93,0,0,0-1.42,3.86l-.47.29a.67.67,0,0,0,0-.54c-.08-.12.25-.8.25-.8a1.06,1.06,0,0,1-.15-.45c0-.06,0-.1-.07-.1s-.17-.14-.24-.05-.08,0-.13,0l.47-.88A14.19,14.19,0,0,1,66.75,85.36Zm1.09,8.52a3.78,3.78,0,0,1,.1-.42L69,93c0,.48,0,1,0,1.45h-.93A2.18,2.18,0,0,1,67.84,93.88Zm19.92,36.78c-14.62-6.61-23.22-16.59-27.3-31.76h27.3Zm4.47,0V98.9h27.05C115.63,111.06,107.86,123.27,92.23,130.64Zm28.21-36.21h-.09a31.82,31.82,0,0,0-60.9,0H59.4l0-.13a94.56,94.56,0,0,1-1.23-26.42h63.57A83.44,83.44,0,0,1,120.44,94.43Z"/></g></svg>