<svg xmlns="http://www.w3.org/2000/svg" viewBox="0 0 167 73" fill="none">
<path d="M143.003 41.8756L142.083 44.0212C140.777 47.0742 138.733 49.5336 136.011 51.3357C133.289 53.1378 130.219 54.0495 126.886 54.0452C122.094 54.0368 117.998 52.3279 114.716 48.9569C111.443 45.5986 109.785 41.4262 109.793 36.5583C109.802 31.7583 111.451 27.624 114.695 24.2657C117.956 20.8905 121.984 19.1816 126.665 19.1901C129.299 19.1901 131.72 19.7032 133.865 20.6954C135.812 21.5986 137.542 22.9173 139.017 24.6177L147.723 24.6304C145.819 20.9201 143.317 18.0028 140.256 15.9378C136.63 13.4954 132.25 12.253 127.221 12.2445C123.757 12.2403 120.564 12.7958 117.731 13.9025C114.916 15.0007 112.321 16.7138 110.014 18.9951C107.559 21.3993 105.672 24.0961 104.408 27.0092C103.149 29.9138 102.504 33.0304 102.5 36.27C102.496 39.4502 103.022 42.4947 104.069 45.323C105.108 48.1428 106.643 50.6954 108.623 52.9173C111.015 55.5717 113.741 57.6071 116.722 58.9512C119.699 60.2954 122.998 60.9823 126.53 60.9866C131.325 60.9951 135.676 59.7951 139.458 57.4247C143.253 55.0502 146.302 51.6156 148.52 47.2184C149.253 45.7343 149.813 44.1103 150.178 42.4099C150.542 40.6883 150.733 38.7845 150.733 36.7534V36.6177L128.752 36.5838L128.743 41.8502L142.995 41.8714L143.003 41.8756Z" fill="white"/>
<path d="M159.997 13.2853L159.924 60.0471L166.598 60.0575L166.671 13.2958L159.997 13.2853Z" fill="white"/>
<path d="M86.6604 13.1704L86.5869 59.9365L93.2611 59.9469L93.3346 13.1809L86.6604 13.1704Z" fill="white"/>
<path d="M25.93 22.347L17.7608 28.4575L35.8815 44.7301L35.9342 44.6818H36.0878L54.2568 28.5584L46.4036 22.3777L25.9344 22.347H25.93ZM36.5092 41.9558L21.1672 28.1546L27.2733 23.6068L45.3018 23.6332L51.7415 28.5979L36.5092 41.9514V41.9558Z" fill="#917F6A"/>
<path d="M28.8272 24.8271L23.2171 28.9666L36.1624 40.4281L49.2394 28.712L43.9937 24.8447L28.8228 24.8227L28.8272 24.8271ZM36.4609 38.4089L25.7763 28.7779L30.0827 25.5426L43.1903 25.5602L47.343 29.0017L36.4653 38.4089H36.4609Z" fill="#917F6A"/>
<path d="M31.6279 26.605L27.7693 29.3354L36.18 36.8418L44.8278 29.2564L41.3335 26.6181L31.6323 26.605H31.6279ZM36.3644 35.4766L29.7227 29.5461L32.677 27.2722L40.7365 27.281L43.2343 29.3617L36.36 35.4766H36.3644Z" fill="#917F6A"/>
<path d="M41.3686 54.0143L44.0244 51.6571L44.0332 44.9584L41.3686 47.2015V54.0143Z" fill="#917F6A"/>
<path d="M27.7957 53.9968L30.4471 51.6351L30.4602 44.9408L27.7913 47.1795L27.7957 53.9968Z" fill="#917F6A"/>
<path d="M35.8815 44.7301L30.8377 49.528V54.0362H36.2064L40.8638 49.4183V47.1356H38.7085L41.2194 44.6905L36.079 44.6818L35.9474 44.7959L35.8727 44.73L35.8815 44.7301ZM38.6163 47.1312L35.8201 49.449H38.4758V51.6965L33.4584 51.6877L33.4672 47.1224H33.7349L38.6163 47.1312Z" fill="#917F6A"/>
<path d="M27.7342 5.59581L30.469 1.02173L33.3267 3.53265L33.9193 4.05502L34.4724 4.53789L36.0615 5.93382L37.6506 4.54228L38.2037 4.05941L38.7963 3.53704L41.6628 1.0349L43.6074 4.30962L43.783 4.60813L44.0069 4.99003L44.3844 5.62215L45.4643 7.43949L47.4089 6.60983L48.0849 6.32011L48.8092 6.00844L52.3078 4.51155L53.1419 8.22524L53.2165 8.56325L53.4711 9.70897L53.9364 11.7721L56.0435 11.5834L56.4078 11.5483L56.7722 11.5175L61.3462 11.1049L60.9951 14.8932L60.9248 15.679L60.8546 16.4077L60.657 18.5147L62.7202 18.9844L63.4313 19.1512L63.8659 19.2522L64.2039 19.3268L67.9132 20.174L66.0959 24.3925L65.8062 25.0686L64.9677 27.0088L71.3592 30.8279L68.8483 33.6856L68.3259 34.2782L67.843 34.8313L66.4471 36.4203L68.3215 38.5669L68.8439 39.1595L71.346 42.026L68.0713 43.9663L67.7728 44.1418L67.0748 44.5589L66.7588 44.7432L64.9414 45.8231L65.7711 47.7677L66.0608 48.4438L66.3725 49.1681L67.8693 52.6667L64.1556 53.5007L63.8176 53.5753L63.3831 53.6719L63.0231 53.7509L62.6675 53.8299L60.6044 54.2952L60.7931 56.4023L60.8283 56.7666L60.859 57.131L61.2716 61.7051L57.4833 61.3539L56.6975 61.2836L55.9688 61.2134L53.8618 61.0159L53.3921 63.0747L53.2253 63.7858L53.1287 64.2204L53.0541 64.554L52.2069 68.2633L47.9883 66.4459L47.6503 66.3011L47.3167 66.1562L45.3765 65.3178L41.5574 71.7048L38.6997 69.1939L38.1071 68.6715L37.554 68.1887L35.9649 66.7927L33.8183 68.6671L33.4847 68.9569L33.2257 69.1851L30.3593 71.6873L28.419 68.4125L27.6376 67.1044L26.5578 65.2871L24.6131 66.1167L23.9371 66.4064L23.2128 66.7181L19.7142 68.215L18.8802 64.5013L18.8055 64.1633L18.5509 63.0176L18.0856 60.9544L15.9786 61.1432L15.6142 61.1739L15.2499 61.209L10.6758 61.6217L11.027 57.8333L11.0972 57.0476L11.1674 56.3189L11.365 54.2162L9.30619 53.7465L8.59506 53.5797L8.16048 53.4831L7.82247 53.4085L4.11316 52.5613L5.9305 48.3428L6.07536 48.0092L6.22022 47.6712L7.05866 45.7309L5.24132 44.6467L4.92965 44.4579L4.23168 44.0409L3.93318 43.8653L0.667236 41.9119L3.17815 39.0542L3.70053 38.4616L4.1834 37.9085L5.57933 36.3194L3.70492 34.1728L3.18254 33.5802L0.680405 30.7137L3.95513 28.7735L4.25363 28.5979L5.26766 27.9921L7.085 26.9122L6.25534 24.9676L5.96562 24.2916L5.65395 23.5673L4.15706 20.0687L7.87075 19.2346L8.20876 19.16L8.64334 19.0634L9.0033 18.9844L9.35887 18.9054L11.422 18.4401L11.2333 16.333L11.1982 15.9687L11.1674 15.6043L10.7548 11.0303L14.5431 11.3814L15.3289 11.4517L16.0576 11.5219L18.1646 11.7195L18.6343 9.65629L18.7133 9.30072L18.7968 8.94516L18.8933 8.51058L18.9679 8.17257L19.8152 4.46326L24.0337 6.2806L24.7097 6.57032L26.6499 7.40876L27.7342 5.59142V5.59581ZM30.3593 0.358887L27.9713 4.35352L25.0653 2.51423L23.7879 5.70555L19.5123 3.86187L18.5553 8.06721L18.4807 8.40522L15.1489 7.55362L14.9162 10.982L14.5738 10.9513L10.2807 10.5518L10.6977 15.1873L7.26497 15.4068L8.10341 18.7386L7.7654 18.8132L3.56006 19.7614L5.25449 23.7253L5.39057 24.0414L2.19486 25.31L4.02537 28.2204L3.73126 28.396L0.0219485 30.5952L2.8577 33.8392L3.08597 34.0982L0.438971 36.293L3.07719 38.4967L2.84892 38.7557L0 41.9953L3.99464 44.3833L2.15535 47.2893L5.34667 48.5711L3.50299 52.8466L7.70834 53.808L8.04634 53.8826L7.19474 57.2144L10.6275 57.447L10.5968 57.7894L10.1973 62.0826L14.8328 61.6656L15.0523 65.0983L18.3885 64.2555L18.4631 64.5935L19.4069 68.7988L23.3708 67.1044L23.6869 66.9683L24.9555 70.164L27.8659 68.3335L28.0415 68.6276L30.2407 72.3369L33.4891 69.5012L33.7481 69.2729L35.943 71.9199L38.1466 69.2817L38.4056 69.51L41.6452 72.3589L44.0332 68.3643L46.9392 70.2035L48.221 67.0122L52.4966 68.8559L53.4535 64.6506L53.5282 64.3169L56.8599 65.1685L57.0926 61.7358L57.435 61.7665L61.7281 62.166L61.3111 57.5304L64.7439 57.311L63.9011 53.9748L64.2391 53.9002L68.4444 52.952L66.75 48.9881L66.6139 48.672L69.8096 47.4034L67.9791 44.493L68.2776 44.3174L71.9869 42.1182L69.1511 38.8698L68.9229 38.6108L71.5699 36.416L68.9317 34.2123L69.1599 33.9533L72.0045 30.7181L68.0098 28.3301L69.8491 25.4241L66.6578 24.1467L68.5015 19.8711L64.2961 18.9098L63.9581 18.8352L64.8097 15.5034L61.377 15.2707L61.4077 14.9283L61.8072 10.6352L57.1716 11.0522L56.9521 7.61947L53.6203 8.4579L53.5457 8.11989L52.6019 3.91455L48.638 5.60898L48.322 5.74506L47.0533 2.54935L44.1429 4.37986L43.9674 4.08575L41.7681 0.376446L38.5197 3.2122L38.2607 3.44046L36.0659 0.793468L33.8622 3.43168L33.6033 3.20342L30.3636 0.358887H30.3593Z" fill="#917F6A"/>
<path d="M68.3829 39.5151L67.8606 38.9225L65.6657 36.4116L67.3865 34.4582L67.6279 34.1816L67.8693 33.9094L68.3917 33.3168L70.4593 30.9639L64.2303 27.2415L65.2619 24.8535L65.5516 24.1775L67.1012 20.5779L64.0459 19.8799L63.7079 19.8053L63.2733 19.7087L62.5622 19.5419L60.0249 18.9625L60.2664 16.3726L60.3366 15.6439L60.4068 14.8581L60.6966 11.7414L56.7941 12.0926L56.4298 12.1233L56.0654 12.1584L53.4755 12.3911L52.9048 9.85384L52.6502 8.70812L52.5756 8.37011L51.8864 5.31488L49.0068 6.54399L48.2825 6.85566L45.214 8.16819L43.884 5.92944L43.5064 5.29732L43.2826 4.91541L43.107 4.61691L41.5091 1.92163L39.1518 3.98041L38.5592 4.50278L36.0483 6.69763L34.0949 4.97687L33.5418 4.494L32.9492 3.97163L30.5963 1.90407L26.8738 8.13307L24.4858 7.10149L23.8098 6.81177L20.2102 5.2622L19.5123 8.31305L19.4376 8.65105L19.3367 9.08564L19.1699 9.79677L18.5904 12.334L16.0005 12.0926L15.2718 12.0224L14.4861 11.9521L11.3694 11.6624L11.7205 15.5648L11.7557 15.9292L11.7864 16.2935L12.019 18.8835L9.48178 19.4541L9.12621 19.5331L8.76626 19.6122L8.33167 19.7087L7.99367 19.7834L4.93843 20.4725L6.16755 23.3522L6.47922 24.0765L7.79174 27.1449L5.55299 28.4706L4.92087 28.8481L4.53896 29.072L4.24046 29.2476L1.54957 30.8454L3.60834 33.2027L4.13072 33.7953L6.32558 36.3062L4.6092 38.2596L4.12633 38.8127L3.60395 39.4054L1.5364 41.7582L7.7654 45.4807L6.73382 47.8687L6.4441 48.5447L4.89453 52.1443L7.94538 52.8423L8.28339 52.9169L8.71797 53.0178L9.4291 53.1847L11.9664 53.7641L11.7249 56.354L11.6547 57.0827L11.5845 57.8685L11.2947 60.9852L15.1972 60.634L15.5615 60.5989L15.9259 60.5681L18.5158 60.3355L19.0865 62.8727L19.1655 63.2283L19.2445 63.5883L19.3411 64.0228L19.4157 64.3608L20.1049 67.4161L22.9845 66.187L23.7088 65.8753L26.7772 64.5628L28.1029 66.8015L28.8843 68.1097L30.4822 70.8049L32.8394 68.7462L33.4321 68.2238L35.9474 66.0289L37.9008 67.7453L38.1729 67.9868L38.4495 68.2282L41.3906 70.8181L45.1131 64.5891L47.5011 65.6163L48.1771 65.906L51.7767 67.4556L52.4746 64.4048L52.5493 64.0667L52.6502 63.6322L52.7336 63.2766L52.8126 62.921L53.3921 60.3838L55.982 60.6252L56.7107 60.6954L57.4965 60.7657L60.6132 61.0554L60.262 57.1529L60.2005 56.4243L59.9679 53.8343L62.5051 53.2637L62.8607 53.1847L63.2206 53.1056L63.6552 53.0091L63.9932 52.9344L67.0485 52.2452L65.8194 49.3656L65.5077 48.6413L64.1952 45.5729L66.4339 44.2472L67.4479 43.6414L67.7464 43.4658L70.4373 41.868L68.3786 39.5107L68.3829 39.5151ZM7.37033 36.3238C7.39228 20.5077 20.2366 7.70727 36.0527 7.72922C51.8688 7.75116 64.6692 20.5955 64.6429 36.4116C64.621 52.2277 51.7767 65.0281 35.9649 65.0061C20.1488 64.9842 7.34399 52.1399 7.37033 36.3238Z" fill="#917F6A"/>
<path d="M63.4094 36.4028C63.4313 21.2934 51.1621 8.98463 36.0527 8.96268C20.9433 8.94073 8.63014 21.2144 8.6082 36.3193C8.58625 51.4287 20.8599 63.7375 35.9693 63.7594C51.0787 63.7814 63.3874 51.5121 63.4094 36.4028ZM9.04278 36.3193C9.06473 21.447 21.1803 9.36653 36.0527 9.39287C50.9206 9.41482 63.0011 21.5304 62.9792 36.4028C62.9572 51.2751 50.8416 63.3512 35.9737 63.3292C21.1013 63.3073 9.02083 51.1917 9.04278 36.3193Z" fill="#917F6A"/>
<path d="M35.9342 44.6818L35.8815 44.7301L35.9561 44.7959L36.0878 44.6818H35.9342Z" fill="#917F6A"/>
<path d="M31.9345 60.4715H31.2298V57.2796H30.5765V56.7266H31.9345V60.4715Z" fill="#917F6A"/>
<path d="M35.1445 57.9997C35.1445 57.8128 35.0845 57.6542 34.9644 57.5239C34.8444 57.3919 34.7004 57.3259 34.5323 57.3259C34.3557 57.3259 34.2091 57.3876 34.0925 57.5111C33.9776 57.6328 33.9202 57.7888 33.9202 57.9792C33.9202 58.1678 33.9768 58.323 34.0899 58.4447C34.2031 58.5665 34.3471 58.6273 34.522 58.6273C34.6935 58.6273 34.8401 58.5656 34.9619 58.4422C35.0836 58.3187 35.1445 58.1712 35.1445 57.9997ZM34.5066 60.4715H33.7427L34.5915 59.1958C34.5246 59.2095 34.4697 59.2198 34.4269 59.2266C34.384 59.2318 34.3437 59.2344 34.306 59.2344C33.9991 59.2344 33.7384 59.1118 33.5241 58.8665C33.3114 58.6213 33.2051 58.3221 33.2051 57.9689C33.2051 57.8248 33.2334 57.6774 33.29 57.5265C33.3483 57.3756 33.4272 57.2401 33.5266 57.1201C33.6621 56.9606 33.8104 56.844 33.9716 56.7703C34.1345 56.6948 34.3214 56.6571 34.5323 56.6571C34.7124 56.6571 34.8821 56.6897 35.0416 56.7549C35.2011 56.82 35.3425 56.9143 35.466 57.0378C35.5878 57.1595 35.6821 57.2984 35.7489 57.4545C35.8158 57.6105 35.8492 57.77 35.8492 57.9329C35.8492 58.1181 35.8132 58.305 35.7412 58.4936C35.6692 58.6805 35.5294 58.9291 35.322 59.2395L34.5066 60.4715Z" fill="#917F6A"/>
<path d="M37.3874 60.4715H36.6389L38.0355 57.385H36.572V56.7266H38.7146V57.421L37.3874 60.4715Z" fill="#917F6A"/>
<path d="M41.5876 56.7266V57.3747H40.3015L40.1858 58.0178C40.263 57.9732 40.3444 57.9397 40.4302 57.9174C40.5159 57.8951 40.6059 57.884 40.7002 57.884C41.0449 57.884 41.3381 58.0126 41.5799 58.2698C41.8234 58.527 41.9451 58.8374 41.9451 59.2009C41.9451 59.3655 41.916 59.5233 41.8577 59.6742C41.8011 59.8234 41.7179 59.9605 41.6082 60.0857C41.4761 60.24 41.3252 60.3566 41.1555 60.4355C40.9874 60.5127 40.8048 60.5513 40.6076 60.5513C40.2527 60.5513 39.9526 60.4364 39.7074 60.2066C39.4639 59.9751 39.3267 59.675 39.2959 59.3064H40.0006C40.0212 59.4744 40.0872 59.6107 40.1987 59.7153C40.3101 59.8199 40.4447 59.8722 40.6025 59.8722C40.774 59.8722 40.9163 59.8088 41.0295 59.6819C41.1443 59.5533 41.2018 59.3913 41.2018 59.1958C41.2018 59.002 41.1443 58.846 41.0295 58.7277C40.9146 58.6076 40.7628 58.5476 40.5742 58.5476C40.461 58.5476 40.3633 58.5708 40.281 58.6171C40.2004 58.6616 40.1352 58.7285 40.0855 58.8177L39.463 58.6762L39.8206 56.7266H41.5876Z" fill="#917F6A"/>
<path d="M23.977 54.3592L21.8293 57.4666L21.2532 57.0685L23.4009 53.961L23.977 54.3592Z" fill="#917F6A"/>
<path d="M22.5473 53.3829L20.0026 56.1746L19.422 55.6453L20.1002 52.6154L20.1636 52.499L18.2606 54.5867L17.7392 54.1114L20.2839 51.3197L20.8607 51.8455L20.1931 54.8637L20.1374 54.9872L22.0298 52.9112L22.5473 53.3829Z" fill="#917F6A"/>
<path d="M19.3377 50.262L16.9269 52.21L17.3629 52.7496L16.8356 53.1757L15.5168 51.5437L16.0441 51.1176L16.4867 51.6653L18.8975 49.7173L19.3377 50.262Z" fill="#917F6A"/>
<path d="M18.1219 48.5936L14.9097 50.5813L13.8422 48.8563L14.4187 48.4995L15.1177 49.6291L15.8585 49.1707L15.1906 48.0914L15.7671 47.7346L16.435 48.8139L17.1768 48.3548L16.4778 47.2253L17.0544 46.8685L18.1219 48.5936Z" fill="#917F6A"/>
<path d="M16.5853 46.0735L13.1211 47.5798L12.6852 46.5773C12.5892 46.3564 12.5301 46.171 12.5079 46.0211C12.4845 45.8708 12.4939 45.722 12.5359 45.5748C12.5833 45.4071 12.6683 45.2532 12.7907 45.113C12.9131 44.9729 13.0527 44.8687 13.2093 44.8006C13.3411 44.7433 13.4893 44.7109 13.6541 44.7032C13.8177 44.6951 13.9643 44.7126 14.0938 44.7556C14.2029 44.7912 14.3042 44.8451 14.3976 44.9172C14.4968 44.9916 14.5966 45.0948 14.697 45.2269L15.5678 43.7336L15.9115 44.524L14.9782 46.0086L16.306 45.4313L16.5853 46.0735ZM14.4902 46.2208L14.3378 45.8702C14.2434 45.6533 14.1267 45.5068 13.9876 45.4307C13.8482 45.3538 13.6949 45.3517 13.5278 45.4243C13.3672 45.4942 13.2643 45.6134 13.2191 45.7821C13.1982 45.8657 13.1941 45.9429 13.2067 46.0138C13.2191 46.0839 13.2532 46.1832 13.3091 46.3118L13.4636 46.6672L14.4902 46.2208Z" fill="#917F6A"/>
<path d="M15.3073 43.0291L11.6394 43.9321L11.4516 43.1691L13.7014 41.0294L13.8189 40.968L11.0759 41.6433L10.9073 40.9582L14.5752 40.0552L14.7618 40.813L12.5272 42.949L12.4122 43.0206L15.1399 42.3491L15.3073 43.0291Z" fill="#917F6A"/>
<path d="M14.4671 39.3839L10.6109 38.017L10.5816 37.4699L14.2685 35.6814L14.3098 36.4502L13.3595 36.9104L13.4312 38.2487L14.4259 38.6164L14.4671 39.3839ZM12.814 38.0989L12.7647 37.1791L11.6114 37.6831L11.472 37.7077L11.6132 37.7159L12.814 38.0989Z" fill="#917F6A"/>
<path d="M14.4151 34.5876L11.3305 34.2841L11.2626 34.9745L10.5879 34.9081L10.7934 32.8199L11.4681 32.8863L11.3991 33.5871L14.4837 33.8907L14.4151 34.5876Z" fill="#917F6A"/>
<path d="M14.664 32.5306L10.9586 31.7962L11.0948 31.1093L14.8001 31.8436L14.664 32.5306Z" fill="#917F6A"/>
<path d="M11.9338 27.8734C12.0575 27.5269 12.2534 27.2388 12.5215 27.009C12.789 26.778 13.0951 26.6306 13.4397 26.5667C13.7847 26.502 14.1275 26.5305 14.4682 26.6521C14.8023 26.7714 15.082 26.9648 15.3074 27.2322C15.532 27.4993 15.676 27.8056 15.7396 28.1511C15.8027 28.4954 15.7747 28.8342 15.6557 29.1675C15.5365 29.5016 15.3434 29.7819 15.0765 30.0084C14.809 30.2338 14.5037 30.3791 14.1604 30.4445C13.8166 30.5086 13.4777 30.4811 13.1436 30.3618C12.8119 30.2434 12.5325 30.0506 12.3051 29.7834C12.0778 29.5162 11.9299 29.2127 11.8615 28.873C11.7933 28.5324 11.8174 28.1992 11.9338 27.8734ZM12.5922 28.0457C12.512 28.2701 12.4919 28.4945 12.5318 28.7189C12.5711 28.9422 12.664 29.1405 12.8105 29.3137C12.957 29.4869 13.1416 29.6133 13.3643 29.6928C13.5829 29.7709 13.8059 29.7896 14.0334 29.749C14.2609 29.7084 14.4631 29.6164 14.6398 29.473C14.816 29.3285 14.9419 29.1507 15.0173 28.9395C15.093 28.7275 15.1078 28.5101 15.0618 28.2872C15.0162 28.0634 14.9183 27.8634 14.7683 27.6871C14.6174 27.5104 14.4335 27.3834 14.2166 27.3059C14.0029 27.2296 13.7847 27.2117 13.5619 27.2521C13.3383 27.2923 13.1394 27.3831 12.9652 27.5246C12.7901 27.6657 12.6658 27.8395 12.5922 28.0457Z" fill="#917F6A"/>
<path d="M16.6178 26.5393L13.3829 24.5887L13.7887 23.9159L16.8927 23.9894L17.0192 24.0289L14.6001 22.5702L14.9645 21.966L18.1993 23.9166L17.7963 24.5849L14.7058 24.5195L14.5738 24.489L16.9794 25.9396L16.6178 26.5393Z" fill="#917F6A"/>
<path d="M18.6171 23.3353L16.8525 19.6479L17.2177 19.24L21.0883 20.5752L20.5752 21.1484L19.5781 20.8036L18.6849 21.8013L19.1294 22.7631L18.6171 23.3353ZM18.3537 21.2599L18.9676 20.5742L17.7961 20.1174L17.68 20.0364L17.7742 20.1418L18.3537 21.2599Z" fill="#917F6A"/>
<path d="M21.627 20.1293L19.2354 17.2095L19.7767 16.7661L21.7391 19.1619L22.6288 18.4332L23.058 18.9573L21.627 20.1293Z" fill="#917F6A"/>
<path d="M27.2281 13.6077L26.4691 13.9651C26.3538 13.9092 26.2611 13.8716 26.1911 13.8523C26.121 13.833 26.0364 13.8216 25.937 13.8181C25.7229 13.8155 25.5291 13.855 25.3557 13.9366C25.1459 14.0354 24.9752 14.1802 24.8434 14.3709C24.7121 14.5605 24.6352 14.7699 24.6126 14.9992C24.5904 15.2273 24.6276 15.4439 24.7242 15.6489C24.8211 15.8548 24.9673 16.0225 25.1628 16.152C25.3582 16.2814 25.5742 16.3568 25.8105 16.378C26.0469 16.3992 26.2704 16.3602 26.481 16.261C26.7652 16.1271 26.9715 15.9047 27.0998 15.5937C27.1489 15.4864 27.1812 15.3445 27.1967 15.1679L25.7667 15.8414L25.4876 15.2487L27.7157 14.1993L27.7498 14.2718C27.8993 14.5893 27.9564 14.9209 27.9208 15.2665C27.8857 15.611 27.7661 15.9271 27.5621 16.2148C27.3576 16.5016 27.0903 16.7228 26.7601 16.8783C26.4292 17.0342 26.0864 17.0994 25.7319 17.0738C25.3778 17.0471 25.0547 16.9362 24.7625 16.741C24.47 16.545 24.2482 16.2877 24.0971 15.969C23.9453 15.6467 23.8861 15.3094 23.9194 14.957C23.9535 14.6043 24.0727 14.2822 24.2768 13.9906C24.4814 13.6978 24.7468 13.4746 25.073 13.321C25.2314 13.2464 25.4008 13.1932 25.5813 13.1614C25.7613 13.1289 25.9416 13.1204 26.1221 13.136C26.3031 13.1504 26.4791 13.1884 26.6504 13.25C26.83 13.3192 27.0226 13.4384 27.2281 13.6077Z" fill="#917F6A"/>
<path d="M29.3301 15.7309L28.3354 12.09L30.2907 11.5558L30.4692 12.2092L29.1889 12.559L29.4183 13.3986L30.6416 13.0644L30.8202 13.7179L29.5968 14.0521L29.8265 14.893L31.1069 14.5432L31.2854 15.1967L29.3301 15.7309Z" fill="#917F6A"/>
<path d="M32.1811 14.9658L31.8561 11.2055L32.8044 11.1236L34.0575 13.8219L34.1201 14.0432L34.1438 13.8145L34.8356 10.948L35.7838 10.866L36.1089 14.6263L35.4117 14.6866L35.1682 11.8693L34.4373 14.7708L33.8474 14.8218L32.6348 12.0883L32.8783 14.9056L32.1811 14.9658Z" fill="#917F6A"/>
<path d="M39.2932 11.0769C39.6575 11.1255 39.9799 11.2569 40.2604 11.471C40.5418 11.6843 40.7497 11.9527 40.8839 12.2761C41.0191 12.5997 41.0627 12.9406 41.0148 13.2989C40.9679 13.6502 40.8372 13.9639 40.6229 14.2399C40.4086 14.515 40.1394 14.7196 39.815 14.8538C39.4917 14.9872 39.1548 15.0305 38.8043 14.9836C38.453 14.9367 38.1388 14.8064 37.8619 14.5928C37.5859 14.3785 37.3802 14.1104 37.2448 13.7886C37.1105 13.466 37.0667 13.129 37.1137 12.7777C37.1603 12.4289 37.2904 12.1157 37.5041 11.8378C37.7179 11.56 37.9836 11.3522 38.3013 11.2145C38.6199 11.077 38.9505 11.0311 39.2932 11.0769ZM39.262 11.7561C39.0261 11.7246 38.8026 11.7517 38.5916 11.8374C38.3816 11.9224 38.2072 12.0545 38.0685 12.2337C37.9297 12.413 37.8447 12.6197 37.8134 12.8539C37.7827 13.0838 37.8109 13.3057 37.898 13.5195C37.9851 13.7334 38.1171 13.9117 38.294 14.0546C38.472 14.1966 38.672 14.2825 38.894 14.3122C39.117 14.342 39.3326 14.3112 39.5408 14.2198C39.7499 14.1285 39.925 13.9912 40.066 13.8079C40.2072 13.6236 40.293 13.4175 40.3235 13.1893C40.3535 12.9646 40.3256 12.7476 40.2396 12.5384C40.1538 12.3282 40.0236 12.1528 39.849 12.012C39.6746 11.8704 39.4789 11.7851 39.262 11.7561Z" fill="#917F6A"/>
<path d="M41.5991 15.4206L42.7095 11.8133L43.3783 12.0192L42.4672 14.979L43.5663 15.3174L43.367 15.9648L41.5991 15.4206Z" fill="#917F6A"/>
<path d="M47.2979 13.5099C47.627 13.6744 47.8894 13.9036 48.0853 14.1973C48.2824 14.4907 48.3919 14.8123 48.4139 15.1621C48.4366 15.5123 48.3671 15.8492 48.2054 16.1728C48.0467 16.4901 47.8211 16.7446 47.5285 16.9361C47.2363 17.1269 46.9149 17.2331 46.5643 17.2547C46.2149 17.2759 45.8819 17.2074 45.5654 17.0491C45.2481 16.8905 44.993 16.6651 44.8003 16.3729C44.6087 16.0803 44.5011 15.7597 44.4776 15.411C44.4552 15.062 44.5234 14.7288 44.682 14.4115C44.8394 14.0966 45.0645 13.8423 45.3571 13.6488C45.6497 13.4552 45.9687 13.3449 46.3142 13.3179C46.6605 13.2912 46.9884 13.3552 47.2979 13.5099ZM47.0476 14.1428C46.8345 14.0362 46.6142 13.9893 46.3866 14.0018C46.1602 14.014 45.9521 14.0824 45.7626 14.2069C45.573 14.3315 45.4253 14.4996 45.3196 14.7111C45.2158 14.9188 45.1704 15.1379 45.1833 15.3687C45.1962 15.5994 45.2633 15.8111 45.3843 16.0038C45.5065 16.1962 45.668 16.3425 45.8685 16.4427C46.0699 16.5434 46.284 16.5843 46.5108 16.5655C46.7384 16.547 46.9487 16.474 47.1418 16.3462C47.3353 16.2177 47.4836 16.0505 47.5866 15.8444C47.688 15.6415 47.7321 15.427 47.7188 15.201C47.7058 14.9742 47.6396 14.7658 47.5201 14.5758C47.401 14.385 47.2435 14.2407 47.0476 14.1428Z" fill="#917F6A"/>
<path d="M52.6533 18.5101L51.9968 17.9868C51.9961 17.8585 51.9888 17.7586 51.9752 17.6872C51.9615 17.6159 51.9343 17.5348 51.8935 17.444C51.8012 17.2506 51.6801 17.0941 51.5301 16.9745C51.3486 16.8299 51.1431 16.7405 50.9136 16.7066C50.6854 16.6725 50.4633 16.696 50.2475 16.7771C50.0328 16.8581 49.8548 16.9872 49.7134 17.1646C49.5714 17.3427 49.4856 17.5481 49.4557 17.7809C49.4259 18.0136 49.4537 18.2408 49.5392 18.4624C49.6247 18.684 49.7585 18.8674 49.9407 19.0127C50.1866 19.2087 50.4775 19.2955 50.8134 19.2732C50.9315 19.2698 51.0732 19.2361 51.2386 19.1719L50.0016 18.1858L50.4103 17.6731L52.3377 19.2096L52.2878 19.2722C52.0688 19.5469 51.7963 19.7447 51.4703 19.8657C51.1455 19.9865 50.8088 20.0189 50.4603 19.9628C50.1123 19.9061 49.7955 19.7639 49.5099 19.5363C49.2236 19.308 49.0135 19.0291 48.8797 18.6995C48.7471 18.3698 48.7038 18.0306 48.7499 17.682C48.7965 17.3327 48.9294 17.0197 49.1488 16.7431C49.371 16.4644 49.6477 16.262 49.9788 16.1361C50.3106 16.0108 50.6525 15.9753 51.0046 16.0297C51.3579 16.084 51.6756 16.2235 51.9578 16.4485C52.0948 16.5577 52.2175 16.6863 52.3258 16.8342C52.4347 16.9815 52.522 17.1396 52.5878 17.3086C52.6549 17.4774 52.6986 17.6523 52.7191 17.8333C52.7364 18.0252 52.7145 18.2508 52.6533 18.5101Z" fill="#917F6A"/>
<path d="M51.6198 21.3483L54.3811 18.7706L54.859 19.2825L52.0977 21.8602L51.6198 21.3483Z" fill="#917F6A"/>
<path d="M55.2128 24.1784L55.6792 24.8447C55.5239 24.8689 55.4025 24.8817 55.3148 24.8832C55.2271 24.8847 55.1261 24.8763 55.0117 24.858C54.8433 24.8252 54.6816 24.7721 54.5266 24.6988C54.3723 24.625 54.2297 24.5329 54.0989 24.4224C53.9674 24.3124 53.8532 24.1881 53.7562 24.0496C53.5558 23.7633 53.4421 23.4451 53.4152 23.0951C53.3889 22.7457 53.4494 22.4115 53.597 22.0922C53.7457 21.7732 53.9655 21.5119 54.2561 21.3085C54.5438 21.1071 54.8614 20.9918 55.2087 20.9625C55.5565 20.9339 55.8884 20.9919 56.2045 21.1364C56.5205 21.2808 56.7782 21.4955 56.9776 21.7804C57.1278 21.995 57.2312 22.2321 57.2879 22.4918C57.3458 22.7517 57.3519 23.0094 57.3062 23.2648C57.2899 23.3714 57.2646 23.4682 57.2304 23.5553C57.1966 23.643 57.1407 23.7586 57.0626 23.9021L56.606 23.2498C56.6315 23.1303 56.6457 23.0316 56.6488 22.9535C56.6526 22.875 56.6465 22.7883 56.6305 22.6937C56.5971 22.4947 56.5276 22.3199 56.4222 22.1692C56.2951 21.9876 56.1285 21.8519 55.9223 21.7621C55.7167 21.6729 55.5006 21.6392 55.2741 21.6609C55.0484 21.682 54.8408 21.7589 54.6513 21.8915C54.4633 22.0231 54.3205 22.1926 54.2229 22.3999C54.1265 22.6074 54.0849 22.8236 54.098 23.0486C54.1123 23.2738 54.1826 23.4764 54.3086 23.6565C54.4 23.7872 54.516 23.8963 54.6565 23.984C54.744 24.0372 54.8253 24.077 54.9005 24.1035C54.9769 24.1302 55.081 24.1552 55.2128 24.1784Z" fill="#917F6A"/>
<path d="M55.0744 25.8505L59.1645 25.7554L59.3867 26.2562L56.5778 29.2399L56.2656 28.5361L56.9899 27.7678L56.4465 26.5427L55.386 26.5532L55.0744 25.8505ZM57.0766 26.463L57.4501 27.305L58.3484 26.4235L58.47 26.3509L58.3351 26.3935L57.0766 26.463Z" fill="#917F6A"/>
<path d="M56.7285 29.9657L60.3745 28.9778L60.5577 29.6538L57.5661 30.4643L57.8671 31.5752L57.2127 31.7525L56.7285 29.9657Z" fill="#917F6A"/>
<path d="M57.5905 34.1425L61.3541 33.8198L61.4139 34.5176L57.6503 34.8402L57.5905 34.1425Z" fill="#917F6A"/>
<path d="M57.7377 35.9016L61.5106 36.0875L61.4719 36.8722L58.7033 38.2776L58.5732 38.3028L61.3946 38.4418L61.3599 39.1465L57.587 38.9606L57.6254 38.1811L60.3783 36.775L60.509 36.7393L57.7032 36.6011L57.7377 35.9016Z" fill="#917F6A"/>
<path d="M58.4949 39.8824L58.3401 40.5977C58.1934 40.5758 58.0684 40.6007 57.965 40.6725C57.8615 40.7451 57.7938 40.855 57.7619 41.0022C57.7312 41.1444 57.7504 41.2709 57.8196 41.3817C57.8897 41.4928 57.9932 41.5631 58.1302 41.5928C58.2903 41.6274 58.4304 41.599 58.5506 41.5076C58.6545 41.4289 58.7657 41.288 58.884 41.0851C58.9277 41.0112 58.9542 40.9654 58.9634 40.9477C59.0402 40.829 59.1098 40.7374 59.1721 40.6729C59.2963 40.5465 59.4452 40.4568 59.6188 40.4039C59.7932 40.352 59.9681 40.345 60.1436 40.383C60.3311 40.4236 60.4944 40.5096 60.6336 40.641C60.7736 40.7725 60.8719 40.9314 60.9284 41.1175C60.9858 41.3037 60.9936 41.4932 60.9519 41.6858C60.9086 41.8861 60.8249 42.0576 60.7008 42.2001C60.5774 42.3437 60.4254 42.4457 60.2448 42.5061C60.0639 42.5673 59.8722 42.5814 59.6697 42.5483L59.8222 41.8433C59.9426 41.8586 60.0452 41.836 60.13 41.7755C60.2154 41.716 60.2708 41.628 60.296 41.5116C60.3193 41.4037 60.3023 41.3082 60.2451 41.225C60.1884 41.1428 60.1036 41.0896 59.9906 41.0651C59.8811 41.0414 59.7851 41.056 59.7029 41.109C59.6204 41.1629 59.5301 41.2697 59.4319 41.4295L59.345 41.576C59.205 41.8047 59.0699 41.9718 58.9395 42.0771C58.6711 42.2906 58.3678 42.3607 58.0296 42.2875C57.8121 42.2405 57.6241 42.1442 57.4656 41.9988C57.3078 41.8544 57.1961 41.6788 57.1306 41.4719C57.066 41.2653 57.0572 41.0536 57.104 40.837C57.1794 40.4886 57.3639 40.222 57.6575 40.0373C57.7877 39.9534 57.9242 39.9005 58.0669 39.8785C58.1818 39.8532 58.3244 39.8545 58.4949 39.8824Z" fill="#917F6A"/>
<path d="M56.5719 43.2119L59.4949 44.2429L59.7257 43.5887L60.365 43.8143L59.667 45.793L59.0277 45.5675L59.2619 44.9034L56.339 43.8723L56.5719 43.2119Z" fill="#917F6A"/>
<path d="M55.8293 45.1374L59.2526 46.7344L58.9565 47.3691L55.5332 45.7721L55.8293 45.1374Z" fill="#917F6A"/>
<path d="M54.8556 47.0238L57.5099 48.6244L57.8681 48.0303L58.4487 48.3804L57.3652 50.1772L56.7846 49.8272L57.1483 49.2241L54.494 47.6235L54.8556 47.0238Z" fill="#917F6A"/>
<path d="M56.7328 51.1264L56.298 51.6746L54.4527 50.2111C54.3307 50.1142 54.2435 50.0502 54.1913 50.0188C54.1398 49.988 54.0792 49.9645 54.0094 49.9482C53.9007 49.9246 53.7961 49.9298 53.6953 49.9639C53.5946 49.9979 53.5124 50.0551 53.4488 50.1353C53.39 50.2094 53.3524 50.2962 53.3359 50.396C53.32 50.4962 53.329 50.5899 53.3627 50.6769C53.3894 50.7517 53.4281 50.8176 53.4789 50.8747C53.5298 50.9318 53.6172 51.0095 53.7413 51.108L55.5866 52.5715L55.1485 53.1238L53.3032 51.6603C53.1071 51.5047 52.9625 51.3632 52.8693 51.2356C52.7767 51.1086 52.7126 50.9656 52.6768 50.8065C52.6349 50.6213 52.6355 50.4297 52.6787 50.2316C52.7213 50.0342 52.7989 49.8645 52.9115 49.7226C53.0176 49.5889 53.1581 49.4786 53.3331 49.3917C53.5076 49.3056 53.6882 49.2567 53.875 49.2451C54.0468 49.2384 54.2076 49.2659 54.3574 49.3278C54.5072 49.3896 54.6839 49.5013 54.8875 49.6628L56.7328 51.1264Z" fill="#917F6A"/>
<path d="M51.2236 51.812L53.3578 54.0562L53.8601 53.5786L54.3269 54.0694L52.8076 55.5142L52.3408 55.0233L52.8507 54.5384L50.7166 52.2942L51.2236 51.812Z" fill="#917F6A"/>
<path d="M49.658 53.1992L51.8951 56.2391L50.2626 57.4405L49.861 56.8949L50.93 56.1083L50.4141 55.4072L49.3927 56.1589L48.9912 55.6133L50.0126 54.8616L49.4959 54.1596L48.427 54.9462L48.0255 54.4007L49.658 53.1992Z" fill="#917F6A"/>
</svg>